/* XPM */
static char * flprodia_xpm[] = {
"32 32 201 2",
"  	c None",
". 	c #191919",
"+ 	c #1B1B1B",
"@ 	c #1C1C1C",
"# 	c #484848",
"$ 	c #585858",
"% 	c #595959",
"& 	c #454545",
"* 	c #272727",
"= 	c #292929",
"- 	c #3B3B3B",
"; 	c #A0A0A0",
"> 	c #DCDCDC",
", 	c #FFFFFF",
"' 	c #FDFDFD",
") 	c #F5F5F5",
"! 	c #C2C2C2",
"~ 	c #737373",
"{ 	c #383838",
"] 	c #333333",
"^ 	c #B4B4B4",
"/ 	c #E7E7E7",
"( 	c #D5D5D5",
"_ 	c #D7D7D7",
": 	c #FEFEFE",
"< 	c #FCFCFC",
"[ 	c #F8F8F8",
"} 	c #F4F4F4",
"| 	c #F0F0F0",
"1 	c #ECECEC",
"2 	c #E4E4E4",
"3 	c #AEAEAE",
"4 	c #6B6B6B",
"5 	c #393939",
"6 	c #2B2B2B",
"7 	c #D4D4D4",
"8 	c #FBFBFB",
"9 	c #F7F7F7",
"0 	c #F3F3F3",
"a 	c #E8E8E8",
"b 	c #CCCCCC",
"c 	c #C8C8C8",
"d 	c #E9E9E9",
"e 	c #EFEFEF",
"f 	c #EBEBEB",
"g 	c #E3E3E3",
"h 	c #DFDFDF",
"i 	c #DBDBDB",
"j 	c #A5A5A5",
"k 	c #8E8E8E",
"l 	c #474747",
"m 	c #1E1E1E",
"n 	c #C6C6C6",
"o 	c #FAFAFA",
"p 	c #D6D6D6",
"q 	c #E2E2E2",
"r 	c #DEDEDE",
"s 	c #DADADA",
"t 	c #D2D2D2",
"u 	c #C9C9C9",
"v 	c #8F8F8F",
"w 	c #909090",
"x 	c #434343",
"y 	c #F6F6F6",
"z 	c #F2F2F2",
"A 	c #E0E0E0",
"B 	c #D9D9D9",
"C 	c #D1D1D1",
"D 	c #CDCDCD",
"E 	c #C5C5C5",
"F 	c #A1A1A1",
"G 	c #ABABAB",
"H 	c #7A7A7A",
"I 	c #414141",
"J 	c #242424",
"K 	c #B6B6B6",
"L 	c #EEEEEE",
"M 	c #D8D8D8",
"N 	c #ACACAC",
"O 	c #B9B9B9",
"P 	c #C4C4C4",
"Q 	c #C0C0C0",
"R 	c #BCBCBC",
"S 	c #ADADAD",
"T 	c #555555",
"U 	c #343434",
"V 	c #F1F1F1",
"W 	c #EAEAEA",
"X 	c #E6E6E6",
"Y 	c #CACACA",
"Z 	c #959595",
"` 	c #8D8D8D",
" .	c #A7A7A7",
"..	c #A3A3A3",
"+.	c #9F9F9F",
"@.	c #6A6A6A",
"#.	c #AFAFAF",
"$.	c #8B8B8B",
"%.	c #4B4B4B",
"&.	c #5D5D5D",
"*.	c #EDEDED",
"=.	c #D3D3D3",
"-.	c #D0D0D0",
";.	c #BEBEBE",
">.	c #888888",
",.	c #9C9C9C",
"'.	c #B2B2B2",
").	c #626262",
"!.	c #E5E5E5",
"~.	c #C7C7C7",
"{.	c #BBBBBB",
"].	c #BDBDBD",
"^.	c #848484",
"/.	c #E1E1E1",
"(.	c #DDDDDD",
"_.	c #CECECE",
":.	c #323232",
"<.	c #BFBFBF",
"[.	c #A2A2A2",
"}.	c #A9A9A9",
"|.	c #AAAAAA",
"1.	c #B7B7B7",
"2.	c #9A9A9A",
"3.	c #878787",
"4.	c #5B5B5B",
"5.	c #808080",
"6.	c #181818",
"7.	c #464646",
"8.	c #404040",
"9.	c #5F5F5F",
"0.	c #444444",
"a.	c #353535",
"b.	c #262626",
"c.	c #3E3E3E",
"d.	c #B5B5B5",
"e.	c #787878",
"f.	c #3F3F3F",
"g.	c #A9BF93",
"h.	c #525252",
"i.	c #4C4C4C",
"j.	c #9EA19B",
"k.	c #A3BB8A",
"l.	c #616161",
"m.	c #6D6D6D",
"n.	c #CCDFBA",
"o.	c #919191",
"p.	c #858585",
"q.	c #9FA29C",
"r.	c #868686",
"s.	c #B0B0B0",
"t.	c #636363",
"u.	c #C1C1C1",
"v.	c #9B9B9B",
"w.	c #9E9E9E",
"x.	c #BABABA",
"y.	c #B8B8B8",
"z.	c #A6A6A6",
"A.	c #C3C3C3",
"B.	c #989898",
"C.	c #949494",
"D.	c #7C7C7C",
"E.	c #B1B1B1",
"F.	c #A8A8A8",
"G.	c #B3B3B3",
"H.	c #777777",
"I.	c #898989",
"J.	c #828282",
"K.	c #717171",
"L.	c #A4A4A4",
"M.	c #818181",
"N.	c #7E7E7E",
"O.	c #7F7F7F",
"P.	c #656565",
"Q.	c #979797",
"R.	c #727272",
"S.	c #565656",
"T.	c #707070",
"U.	c #9D9D9D",
"V.	c #969696",
"W.	c #929292",
"X.	c #8A8A8A",
"Y.	c #7B7B7B",
"Z.	c #757575",
"`.	c #7D7D7D",
" +	c #545454",
".+	c #676767",
"++	c #999999",
"@+	c #747474",
"#+	c #4A4A4A",
"$+	c #666666",
"%+	c #696969",
"&+	c #575757",
"*+	c #3D3D3D",
"=+	c #8C8C8C",
"-+	c #797979",
";+	c #606060",
">+	c #767676",
",+	c #4D4D4D",
"'+	c #6F6F6F",
")+	c #6C6C6C",
"!+	c #939393",
"                                                                ",
"                    . + @ # $ % & * =                           ",
"                . - ; > , , , , ' ) ! ~ { ]                     ",
"              = ^ / ( _ ) : < [ } | 1 2 3 4 5                   ",
"            6 7 8 9 0 a b c d e f / g h i j k l                 ",
"          m n o 9 0 e 1 a i 3 p q r s p t u v w x               ",
"          $ o y z e f / 2 A > ; B ( C D u E F G H I             ",
"        J K y z L f / g A > M N O b c P Q R F v S T             ",
"        U ) V L W X g h i M 7 Y Z `  ...+.v @.S #.$.%.          ",
"        &.V *.W X q h i _ =.-.b c ;. .>.$.,.'.#.G  .).          ",
"        ..*.d !.q r s _ s s > B 7 Y ~.O {.].].E ^ S H           ",
"        ^.R C /.(.s M 2 2 /.h (.i B _ ( =.C _.b Y c '.:.        ",
"        ^.(.O ..S K <.! C [...}.|.E ! <.R O 1.v ` 2.3.:.        ",
"        4.A b E b <. .5.U 6.7.8.:.9.2.3 |.~ 0.a.b.{ 4           ",
"        c.t 7 d.C D Y e.] f.Z g.h.H v #.j i.j.k.&.l.m.          ",
"        c.F 7 j D u E ` m.T F n.o.j N ^ +.4 p.q.r.s.3.{         ",
"          t.-.N Q E u._.c u.v.w.u B x.y.v.z.+.[.1.d.o.          ",
"          %.R P v.u.].<.n A.Q ].{.1.N K [.o.w 2.B.C.D.          ",
"          0.` P ....O d.E.#.N F.j +.z.G.d.3.H.I.p.J.K.          ",
"            4 Q R k v.E.S |.z.[.+.v.L.E.;.M.N.p.M.O.P.          ",
"            $ s.y.^ o.O.L.j [.w.2.Q.; j z.D.R.M.N.K.i.          ",
"            S.Q.^ s.N 2.T.,.U.2.V.W.X.O.Y.Z.@.`. +.+            ",
"              J.#.N F.L.,.4 ++V.W.k $.`.5.O.@.@+#+m.            ",
"              $+v.F.L.; ,..+Z o.k Y.m.%+%+Z.T.&+4 *+            ",
"                T.C.; ,.B.t.o.` =+2.Q.,.M.-+~ l D.              ",
"                  R.X.B.$.;+` I.p.H $+;+@.@+T.T T               ",
"                    .+^.% 3.I.p.M.`.e.>+~ T.H.5.                ",
"                      ,+O.3.^.M.N.H H.~ '+)+` $                 ",
"                          9.r.3.N.>+R.'+4 Y.=+                  ",
"                               +O.!+k v ++J.b.                  ",
"                                                                ",
"                                                                "};
