/* XPM */
static char * webinfosial_xpm[] = {
"32 32 695 2",
"  	c None",
". 	c #001E70",
"+ 	c #001F74",
"@ 	c #072777",
"# 	c #14337E",
"$ 	c #1F3D85",
"% 	c #29458C",
"& 	c #2A468D",
"* 	c #234089",
"= 	c #17347D",
"- 	c #092465",
"; 	c #00114E",
"> 	c #00001A",
", 	c #001F72",
"' 	c #052478",
") 	c #2D498D",
"! 	c #7487B5",
"~ 	c #ADB8D3",
"{ 	c #D6DCEA",
"] 	c #F0F2F7",
"^ 	c #F4F6F9",
"/ 	c #F3F5F8",
"( 	c #F1F3F7",
"_ 	c #E0E5EF",
": 	c #BDC7DF",
"< 	c #8B9CC5",
"[ 	c #465E99",
"} 	c #0B2158",
"| 	c #000016",
"1 	c #022476",
"2 	c #344F91",
"3 	c #A2AECE",
"4 	c #EAEDF4",
"5 	c #FEFEFF",
"6 	c #FFFFFF",
"7 	c #FDFCFE",
"8 	c #F6F8FB",
"9 	c #F7F8FB",
"0 	c #F5F7FA",
"a 	c #F9FAFC",
"b 	c #FCFDFF",
"c 	c #F9FAFE",
"d 	c #C5CEE6",
"e 	c #5870A7",
"f 	c #051547",
"g 	c #002567",
"h 	c #062671",
"i 	c #7285B4",
"j 	c #E7EAF3",
"k 	c #FEFDFF",
"l 	c #F4F5FB",
"m 	c #F0F1F8",
"n 	c #E9EBF3",
"o 	c #E8EAF3",
"p 	c #E4E7F0",
"q 	c #EFF1F8",
"r 	c #F1F3F9",
"s 	c #F2F3F9",
"t 	c #FAFAFD",
"u 	c #F7F8FD",
"v 	c #A4B2D7",
"w 	c #1C336D",
"x 	c #00000F",
"y 	c #000725",
"z 	c #0A2A77",
"A 	c #8B9BC5",
"B 	c #F3F3FA",
"C 	c #EDEFF7",
"D 	c #E9ECF5",
"E 	c #EAEBF5",
"F 	c #ECEDF6",
"G 	c #E8EAF4",
"H 	c #E6E8F2",
"I 	c #E4E6F0",
"J 	c #E8EBF3",
"K 	c #EDEFF6",
"L 	c #EBEDF6",
"M 	c #EAECF5",
"N 	c #E8EBF4",
"O 	c #E9EBF5",
"P 	c #F5F6FC",
"Q 	c #C0C9E5",
"R 	c #243D7D",
"S 	c #000011",
"T 	c #00001C",
"U 	c #082A7C",
"V 	c #808FBF",
"W 	c #EBEDF7",
"X 	c #E4E6F3",
"Y 	c #E4E7F3",
"Z 	c #E2E5F1",
"` 	c #D5D8E4",
" .	c #CED2DD",
"..	c #C7CDDC",
"+.	c #C3CADA",
"@.	c #C5CCDE",
"#.	c #E2E5F0",
"$.	c #E9EBF4",
"%.	c #E7E9F3",
"&.	c #E5E7F2",
"*.	c #E3E6F2",
"=.	c #E2E4F1",
"-.	c #E0E3F0",
";.	c #ECEDF7",
">.	c #B3BDDE",
",.	c #183172",
"'.	c #000009",
").	c #041F5F",
"!.	c #586CAD",
"~.	c #D8DBED",
"{.	c #E0E2F1",
"].	c #D9DCEB",
"^.	c #C6CBDA",
"/.	c #B5BBCB",
"(.	c #B2B9C8",
"_.	c #B0B7C7",
":.	c #B1B8C8",
"<.	c #B2B9CB",
"[.	c #AFB7CA",
"}.	c #CACFDE",
"|.	c #E7E9F4",
"1.	c #E6E9F4",
"2.	c #E4E7F2",
"3.	c #DFE2F0",
"4.	c #DCE0EE",
"5.	c #DBDEED",
"6.	c #DADDED",
"7.	c #E3E4F2",
"8.	c #8392C7",
"9.	c #051B56",
"0.	c #00113B",
"a.	c #324D9C",
"b.	c #A4ACD4",
"c.	c #D3D7EA",
"d.	c #BBC3DA",
"e.	c #A9B0C3",
"f.	c #A1A8BA",
"g.	c #A2A9BC",
"h.	c #A2ABC0",
"i.	c #A4AEC7",
"j.	c #A4AFCA",
"k.	c #A3AFCC",
"l.	c #A8B3CF",
"m.	c #DADEEC",
"n.	c #E0E2EF",
"o.	c #D6D9E8",
"p.	c #E5E7F4",
"q.	c #CED1E2",
"r.	c #D3D7E7",
"s.	c #D9DEED",
"t.	c #D6DAEB",
"u.	c #D5D9EB",
"v.	c #BFC4E2",
"w.	c #4058A1",
"x.	c #000C2D",
"y.	c #143075",
"z.	c #6B7AB8",
"A.	c #ADB4D8",
"B.	c #A4B0CE",
"C.	c #909AB4",
"D.	c #919AB0",
"E.	c #949DB5",
"F.	c #94A1BF",
"G.	c #95A3C6",
"H.	c #95A4C7",
"I.	c #93A3C6",
"J.	c #8F9EC3",
"K.	c #B6C0D9",
"L.	c #E5E8F4",
"M.	c #C4C8D9",
"N.	c #ACB3C6",
"O.	c #C8CDDD",
"P.	c #BCC2D4",
"Q.	c #B4BBCD",
"R.	c #BCC2D5",
"S.	c #D7DBEC",
"T.	c #D2D6E9",
"U.	c #CFD4E7",
"V.	c #CED2E7",
"W.	c #C4C9E3",
"X.	c #7785C0",
"Y.	c #162F72",
"Z.	c #000000",
"`.	c #000E33",
" +	c #3E58A1",
".+	c #5669A9",
"++	c #808FBE",
"@+	c #8894B3",
"#+	c #848DA6",
"$+	c #8693B5",
"%+	c #8797BD",
"&+	c #8797BF",
"*+	c #8797BE",
"=+	c #8394BC",
"-+	c #8898BF",
";+	c #B7C0DA",
">+	c #E0E3F1",
",+	c #E3E5F1",
"'+	c #D6DAE8",
")+	c #B9BFD1",
"!+	c #C9CDDF",
"~+	c #D6D9EB",
"{+	c #D3D7E9",
"]+	c #CFD3E8",
"^+	c #CBD0E6",
"/+	c #C9CDE5",
"(+	c #BEC4E0",
"_+	c #8992C7",
":+	c #435AA3",
"<+	c #000D2C",
"[+	c #142C69",
"}+	c #5065AA",
"|+	c #465C9F",
"1+	c #51669F",
"2+	c #7A86A5",
"3+	c #7785A9",
"4+	c #788AB7",
"5+	c #788AB6",
"6+	c #7588B5",
"7+	c #8B9AC1",
"8+	c #CAD0E4",
"9+	c #E6E8F3",
"0+	c #E4E6F2",
"a+	c #E2E5F2",
"b+	c #E3E6F3",
"c+	c #DEE1F0",
"d+	c #D8DCED",
"e+	c #D4D8EA",
"f+	c #CFD3E7",
"g+	c #CCD1E7",
"h+	c #C7CDE4",
"i+	c #C5CAE4",
"j+	c #B3B9DA",
"k+	c #8791C5",
"l+	c #6A7ABA",
"m+	c #0D235E",
"n+	c #00000A",
"o+	c #384F94",
"p+	c #5467A9",
"q+	c #07297A",
"r+	c #1D3674",
"s+	c #63739B",
"t+	c #697CAA",
"u+	c #687CAF",
"v+	c #687CAE",
"w+	c #6076AA",
"x+	c #ABB5D3",
"y+	c #EDEDF7",
"z+	c #E6E9F3",
"A+	c #E5E7F3",
"B+	c #DBDFED",
"C+	c #C5CBE1",
"D+	c #C8CCE4",
"E+	c #C2C7E2",
"F+	c #A3ACD4",
"G+	c #858FC4",
"H+	c #7D89C2",
"I+	c #253F85",
"J+	c #000A2A",
"K+	c #2C4793",
"L+	c #596CAC",
"M+	c #1F3C85",
"N+	c #051D59",
"O+	c #314B8C",
"P+	c #5B72A7",
"Q+	c #586FA5",
"R+	c #526AA2",
"S+	c #7D8EBA",
"T+	c #E1E4F1",
"U+	c #EBECF6",
"V+	c #E1E3F1",
"W+	c #DCDFEE",
"X+	c #D7DAEC",
"Y+	c #D3D6E9",
"Z+	c #C4C9E0",
"`+	c #ABB2CE",
" @	c #C2C8E3",
".@	c #B6BDDC",
"+@	c #8F99C7",
"@@	c #8994C7",
"#@	c #8892C7",
"$@	c #40579D",
"%@	c #000721",
"&@	c #02123B",
"*@	c #38539F",
"=@	c #8690C5",
"-@	c #8994C5",
";@	c #6D7BAC",
">@	c #425793",
",@	c #3F5691",
"'@	c #49619D",
")@	c #4A639F",
"!@	c #4A629D",
"~@	c #435D99",
"{@	c #8192BB",
"]@	c #ECEEF6",
"^@	c #FDFDFF",
"/@	c #F4F6FB",
"(@	c #EDEEF6",
"_@	c #DCE0EF",
":@	c #D5D9EC",
"<@	c #D0D4E9",
"[@	c #CBD1E7",
"}@	c #9EA7C4",
"|@	c #AEB5D3",
"1@	c #68749E",
"2@	c #5C6A9A",
"3@	c #8C96C9",
"4@	c #7C89C0",
"5@	c #556AAE",
"6@	c #011035",
"7@	c #07163E",
"8@	c #687ABC",
"9@	c #8892C6",
"0@	c #8E98C9",
"a@	c #9CA6D1",
"b@	c #A4ABD3",
"c@	c #919BC2",
"d@	c #425484",
"e@	c #314984",
"f@	c #3C5698",
"g@	c #3B5595",
"h@	c #3A5495",
"i@	c #355092",
"j@	c #7082B0",
"k@	c #97A2BC",
"l@	c #8B96B5",
"m@	c #ADB5CA",
"n@	c #F4F5FA",
"o@	c #EBEDF5",
"p@	c #DCDFEF",
"q@	c #CDD2E7",
"r@	c #C7CCE5",
"s@	c #BEC3DF",
"t@	c #A9B1D6",
"u@	c #7481B1",
"v@	c #4F5F92",
"w@	c #2A458B",
"x@	c #42589D",
"y@	c #556AB0",
"z@	c #07173D",
"A@	c #09183E",
"B@	c #6A7CBD",
"C@	c #8791C6",
"D@	c #8D97C8",
"E@	c #969FCC",
"F@	c #A1A9D2",
"G@	c #B1B8DC",
"H@	c #808AAF",
"I@	c #293B6B",
"J@	c #213C7F",
"K@	c #2C498F",
"L@	c #2C488D",
"M@	c #244188",
"N@	c #1E3B83",
"O@	c #183580",
"P@	c #4F6498",
"Q@	c #F1F2F6",
"R@	c #DBDEEE",
"S@	c #CACFE6",
"T@	c #C1C6E1",
"U@	c #B7BDDE",
"V@	c #5467A0",
"W@	c #41558E",
"X@	c #364981",
"Y@	c #354D91",
"Z@	c #5468A7",
"`@	c #2D4998",
" #	c #0A1A41",
".#	c #091840",
"+#	c #6A7BBD",
"@#	c #8792C6",
"##	c #8E98C8",
"$#	c #9FA8D1",
"%#	c #A8B0D5",
"&#	c #BBC1E1",
"*#	c #2A3C6A",
"=#	c #0E2A70",
"-#	c #193885",
";#	c #1B3A85",
">#	c #1C3A85",
",#	c #193884",
"'#	c #223E83",
")#	c #CFD4E1",
"!#	c #D8DBEC",
"~#	c #CED2E8",
"{#	c #C0C5E2",
"]#	c #6376AD",
"^#	c #031E61",
"/#	c #0B2159",
"(#	c #58699F",
"_#	c #808DC2",
":#	c #465C9E",
"<#	c #113387",
"[#	c #07173E",
"}#	c #06153A",
"|#	c #6375B8",
"1#	c #8F99C9",
"2#	c #959ECC",
"3#	c #9FA7D1",
"4#	c #B5BBDC",
"5#	c #848EB1",
"6#	c #1C3168",
"7#	c #092874",
"8#	c #0D2D7E",
"9#	c #0E2E7D",
"0#	c #0F2F7D",
"a#	c #0F2F7E",
"b#	c #0D2E7E",
"c#	c #0B2B79",
"d#	c #A3ACC6",
"e#	c #EFF0F9",
"f#	c #D2D6EA",
"g#	c #CACEE5",
"h#	c #CBCFE7",
"i#	c #A5AFD3",
"j#	c #122E75",
"k#	c #06246E",
"l#	c #385092",
"m#	c #25418B",
"n#	c #203D87",
"o#	c #0C2F82",
"p#	c #051437",
"q#	c #000923",
"r#	c #5468AA",
"s#	c #8993C8",
"t#	c #939CCB",
"u#	c #9DA6D0",
"v#	c #ACB4D9",
"w#	c #9BA3C7",
"x#	c #102252",
"y#	c #07246D",
"z#	c #0F3081",
"A#	c #0D2D7D",
"B#	c #96A1C0",
"C#	c #EAECF7",
"D#	c #CFD4E9",
"E#	c #C9CEE6",
"F#	c #A4ADD1",
"G#	c #465E9E",
"H#	c #052167",
"I#	c #081E58",
"J#	c #55669A",
"K#	c #566AA6",
"L#	c #465C9D",
"M#	c #193784",
"N#	c #143483",
"O#	c #020C24",
"P#	c #000008",
"Q#	c #3C5294",
"R#	c #8690C7",
"S#	c #929CCB",
"T#	c #9DA6D1",
"U#	c #A8AFD5",
"V#	c #6574A5",
"W#	c #052062",
"X#	c #0D2D7B",
"Y#	c #042577",
"Z#	c #687AAC",
"`#	c #E1E3F2",
" $	c #D1D5E9",
".$	c #ABB3D4",
"+$	c #6E80B3",
"@$	c #173684",
"#$	c #09256C",
"$$	c #001244",
"%$	c #546290",
"&$	c #9FA7D4",
"*$	c #6F7DB9",
"=$	c #18347C",
"-$	c #1A2D65",
";$	c #7987C4",
">$	c #9AA2D0",
",$	c #6B78A5",
"'$	c #223668",
")$	c #17357F",
"!$	c #0C2D80",
"~$	c #0E2E7E",
"{$	c #0B2B7B",
"]$	c #163580",
"^$	c #B0B8D3",
"/$	c #D3D7EB",
"($	c #C7CDE5",
"_$	c #8F9CC6",
":$	c #395293",
"<$	c #072570",
"[$	c #0F2B71",
"}$	c #021749",
"|$	c #4F5D8C",
"1$	c #9FA8D5",
"2$	c #919BCB",
"3$	c #6275B6",
"4$	c #081E56",
"5$	c #5569AD",
"6$	c #8D97C9",
"7$	c #8C98C8",
"8$	c #1E3164",
"9$	c #011B5B",
"0$	c #0C2D7F",
"a$	c #11307F",
"b$	c #123180",
"c$	c #143280",
"d$	c #143381",
"e$	c #072879",
"f$	c #6C7EB0",
"g$	c #C8CDE6",
"h$	c #7E8DBC",
"i$	c #092873",
"j$	c #08246A",
"k$	c #344E94",
"l$	c #243D7E",
"m$	c #3E528D",
"n$	c #969FCE",
"o$	c #8D97CA",
"p$	c #38529C",
"q$	c #000B29",
"r$	c #1D3574",
"s$	c #818DC7",
"t$	c #6072AF",
"u$	c #193375",
"v$	c #0C235E",
"w$	c #0D2D7C",
"x$	c #102F7E",
"y$	c #1D3985",
"z$	c #1F3C87",
"A$	c #213D88",
"B$	c #213E88",
"C$	c #1E3B87",
"D$	c #25418A",
"E$	c #2B478D",
"F$	c #133381",
"G$	c #0D2C7B",
"H$	c #4E64A3",
"I$	c #223F8B",
"J$	c #344D92",
"K$	c #445BA2",
"L$	c #0F296B",
"M$	c #000003",
"N$	c #000C2A",
"O$	c #475EA5",
"P$	c #6777B4",
"Q$	c #25428B",
"R$	c #1E3773",
"S$	c #102E74",
"T$	c #133282",
"U$	c #1A3885",
"V$	c #26418A",
"W$	c #2A458D",
"X$	c #2D478E",
"Y$	c #2E498F",
"Z$	c #2F4990",
"`$	c #2F498F",
" %	c #2D488F",
".%	c #28448C",
"+%	c #233F88",
"@%	c #1D3A86",
"#%	c #153482",
"$%	c #102F7F",
"%%	c #223F88",
"&%	c #26428A",
"*%	c #10307F",
"=%	c #082B7E",
"-%	c #030E2C",
";%	c #0B1F55",
">%	c #6073B6",
",%	c #41589B",
"'%	c #27438C",
")%	c #26428B",
"!%	c #2B468E",
"~%	c #314B91",
"{%	c #364F93",
"]%	c #395195",
"^%	c #3B5496",
"/%	c #3B5497",
"(%	c #3A5396",
"_%	c #375094",
":%	c #334C92",
"<%	c #2E488F",
"[%	c #27438B",
"}%	c #223E88",
"|%	c #193783",
"1%	c #0E3085",
"2%	c #081E52",
"3%	c #000006",
"4%	c #203672",
"5%	c #2A4795",
"6%	c #385395",
"7%	c #3F5899",
"8%	c #41599A",
"9%	c #405799",
"0%	c #42599A",
"a%	c #455C9C",
"b%	c #475E9D",
"c%	c #485E9D",
"d%	c #465C9C",
"e%	c #435A9A",
"f%	c #3F5699",
"g%	c #3C5597",
"h%	c #3A5496",
"i%	c #334E92",
"j%	c #1F3D87",
"k%	c #0E3084",
"l%	c #0B2565",
"m%	c #000208",
"n%	c #000810",
"o%	c #1E3674",
"p%	c #264493",
"q%	c #334E93",
"r%	c #475F9D",
"s%	c #5166A2",
"t%	c #576BA5",
"u%	c #5B6EA7",
"v%	c #5C6FA8",
"w%	c #5C70A8",
"x%	c #5D70A9",
"y%	c #5D70A8",
"z%	c #5A6EA7",
"A%	c #586CA6",
"B%	c #566AA5",
"C%	c #5267A3",
"D%	c #4B62A0",
"E%	c #425B9A",
"F%	c #2F4A90",
"G%	c #1D3C8D",
"H%	c #112C6E",
"I%	c #000611",
"J%	c #040811",
"K%	c #283B6E",
"L%	c #3B559D",
"M%	c #435B9D",
"N%	c #5469A4",
"O%	c #5F72AA",
"P%	c #6678AD",
"Q%	c #6C7DB1",
"R%	c #7080B3",
"S%	c #7382B4",
"T%	c #7483B4",
"U%	c #7383B4",
"V%	c #7281B4",
"W%	c #6E7FB2",
"X%	c #687AAF",
"Y%	c #6375AC",
"Z%	c #5B6EA8",
"`%	c #4F64A1",
" &	c #3D569A",
".&	c #2F4C97",
"+&	c #1B3067",
"@&	c #02060D",
"#&	c #222E4F",
"$&	c #465B99",
"%&	c #556BAC",
"&&	c #6577B1",
"*&	c #7786BA",
"=&	c #7685B7",
"-&	c #7D8ABA",
";&	c #7F8DBB",
">&	c #818EBB",
",&	c #7D8BBA",
"'&	c #7887B7",
")&	c #7081B3",
"!&	c #6778AE",
"~&	c #5A6EAA",
"{&	c #4C63A7",
"]&	c #395192",
"^&	c #19274A",
"/&	c #0B1019",
"(&	c #374366",
"_&	c #6673AA",
":&	c #7D8BC5",
"<&	c #8390CA",
"[&	c #8792C9",
"}&	c #8692C6",
"|&	c #8792C5",
"1&	c #8994C8",
"2&	c #8591C5",
"3&	c #818EC4",
"4&	c #7987C1",
"5&	c #687AB5",
"6&	c #4C5F99",
"7&	c #2B3861",
"8&	c #090D19",
"9&	c #090912",
"0&	c #282F44",
"a&	c #485175",
"b&	c #5F6A96",
"c&	c #6D79AB",
"d&	c #707CB0",
"e&	c #6E7BAF",
"f&	c #6B77AB",
"g&	c #5D6996",
"h&	c #454F73",
"i&	c #262D44",
"j&	c #060912",
"k&	c #030606",
"l&	c #050508",
"                    . + @ # $ % & * = - ; >                     ",
"                , ' ) ! ~ { ] ^ / ( _ : < [ } |                 ",
"              1 2 3 4 5 6 7 8 9 0 a b 6 6 c d e f               ",
"          g h i j k l m n o p n q r r m m s t u v w x           ",
"        y z A B C D E F G H I J K L L L M E N O P Q R S         ",
"      T U V W X Y Z `  ...+.@.#.$.%.%.%.H &.*.=.-.;.>.,.'.      ",
"      ).!.~.{.].^./.(._.:.<.[.}.|.1.2.Z =.=.3.4.5.6.7.8.9.      ",
"    0.a.b.c.d.e.f.g.h.i.j.k.l.m.n.o.=.p.-.q.r.s.t.c.u.v.w.x.    ",
"    y.z.A.B.C.D.E.F.G.H.I.J.K.L.M.N.O.P.Q.R.S.u.T.U.V.W.X.Y.Z.  ",
"  `. +.+++@+#+$+%+&+*+=+-+;+>+,+n.-.'+)+!+t.~+{+]+^+/+(+_+:+<+  ",
"  [+}+|+1+2+3+4+4+5+6+7+8+9+0+0+Y *.a+b+c+d+e+f+g+h+i+j+k+l+m+  ",
"n+o+p+q+r+s+t+u+v+v+w+x+y+,+9+z+z+A+*.3.B+S.c.C+D+W.E+F+G+H+I+n+",
"J+K+L+M+N+O+P+Q+Q+Q+R+S+T+O G U+L $.A+V+W+X+Y+Z+`+ @.@+@@@#@$@%@",
"&@*@=@-@;@>@,@'@)@!@!@~@{@]@^@^@/@(@G ,+_@:@<@[@}@|@1@2@3@4@5@6@",
"7@8@9@0@a@b@c@d@e@f@g@h@i@j@k@l@m@n@o@*.p@u.q@r@s@t@u@v@w@x@y@z@",
"A@B@C@D@E@F@G@H@I@J@K@L@L@M@N@O@P@Q@C *.R@c.S@T@U@V@W@X@Y@Z@`@ #",
".#+#@###E@$#%#&#|@*#=#-#;#>#>#,#'#)#q >+!#~#W.{#]#^#/#(#_#:#<#[#",
"}#|#9@1#2#3#%#4#5#6#7#8#9#0#a#b#c#d#e#p@f#g#h#i#j#k#l#m#n#a#o#p#",
"q#r#s#1#t#u#v#w#x#y#z#9#9#9#9#A#@ B#C#X+D#E#F#G#H#I#J#K#L#M#N#O#",
"P#Q#R#1#S#T#U#V#W#X#9#9#9#9#9#9#Y#Z#`# $]+.$+$@$#$$$%$&$0@*$=$n+",
"  -$;$D@>$,$'$)$!$~$9#9#9#9#9#9#{$]$^$/$($_$:$<$[$}$|$1$2$3$4$Z.",
"  x.5$6$7$8$9$0$9#9#9#9#a$b$c$d$d$e$f$g$h$@$i$j$k$l$m$n$o$p$q$  ",
"  Z.r$s$t$u$v$w$9#x$d$M#y$z$A$B$B$C$D$E$F$A#X#G$H$I$z$J$K$L$M$  ",
"    N$O$P$Q$R$S$T$U$A$V$W$X$Y$Z$`$ %.%+%A$@%#%$%z$%%&%*%=%-%    ",
"      ;%>%,%D$E$'%)%!%~%{%]%^%/%/%(%_%:%<%[%}%}%D$.%|%1%2%Z.    ",
"      3%4%5%B$6%7%8%9%9%0%a%b%c%c%d%e%f%^%^%g%h%i%j%k%l%m%      ",
"        n%o%p%q%r%s%t%u%v%w%x%y%x%v%z%A%B%C%D%E%F%G%H%I%        ",
"          J%K%L%M%N%O%P%Q%R%S%T%U%V%W%X%Y%Z%`% &.&+&@&          ",
"            Z.#&$&%&&&*&=&-&;&>&>&,&'&)&!&~&{&]&^&M$            ",
"                /&(&_&:&<&[&}&|&1&2&3&4&5&6&7&8&Z.              ",
"                  Z.9&0&a&b&c&d&e&f&g&h&i&j&Z.                  ",
"                        Z.Z.k&l&l&l&Z.Z.Z.                      "};
