/* XPM */
static char * flautomata_xpm[] = {
"32 32 469 2",
"  	c None",
". 	c #252214",
"+ 	c #322D18",
"@ 	c #282417",
"# 	c #1D1C17",
"$ 	c #3E3D2E",
"% 	c #625E46",
"& 	c #8F8759",
"* 	c #A7985B",
"= 	c #8E8156",
"- 	c #675C3C",
"; 	c #3E3725",
"> 	c #232018",
", 	c #1C1C0F",
"' 	c #6E6A47",
") 	c #CAC389",
"! 	c #F8EDA8",
"~ 	c #FEF1AD",
"{ 	c #FEEEAC",
"] 	c #FFECAB",
"^ 	c #F9E3A3",
"/ 	c #CAB379",
"( 	c #705C30",
"_ 	c #2A2211",
": 	c #1D1C04",
"< 	c #716C21",
"[ 	c #DFD56A",
"} 	c #FEF185",
"| 	c #FEED85",
"1 	c #FEEA85",
"2 	c #FEE684",
"3 	c #FFE383",
"4 	c #FFDF83",
"5 	c #FFDC82",
"6 	c #E7B951",
"7 	c #815C0F",
"8 	c #2A2213",
"9 	c #565306",
"0 	c #E0D51C",
"a 	c #FEEE41",
"b 	c #FEEA4D",
"c 	c #FEE54D",
"d 	c #FEE04C",
"e 	c #FEDA4B",
"f 	c #FED64A",
"g 	c #FED14A",
"h 	c #FECB48",
"i 	c #FEBE2E",
"j 	c #E99F0A",
"k 	c #5D3D03",
"l 	c #35322F",
"m 	c #2B2C09",
"n 	c #ABA60A",
"o 	c #FCF00F",
"p 	c #FDEA16",
"q 	c #FDE41C",
"r 	c #FDDE1C",
"s 	c #FDD71A",
"t 	c #FDD019",
"u 	c #FECA18",
"v 	c #FEC417",
"w 	c #FEBD14",
"x 	c #FEB40A",
"y 	c #FFAA03",
"z 	c #CD8401",
"A 	c #221A0E",
"B 	c #353507",
"C 	c #ECE70E",
"D 	c #FCF00E",
"E 	c #FDEA0D",
"F 	c #FDE30C",
"G 	c #FDDC0B",
"H 	c #FDD50B",
"I 	c #FDCD0A",
"J 	c #FEC608",
"K 	c #FEBF07",
"L 	c #FEB905",
"M 	c #FEB204",
"N 	c #FFAA02",
"O 	c #FCA202",
"P 	c #432A03",
"Q 	c #646569",
"R 	c #101518",
"S 	c #61620B",
"T 	c #EEEB11",
"U 	c #EFE510",
"V 	c #EFDE0F",
"W 	c #EFD80E",
"X 	c #EFD10D",
"Y 	c #EFCA0B",
"Z 	c #EFC30A",
"` 	c #F0BC09",
" .	c #F0B608",
"..	c #F0AF07",
"+.	c #F0A906",
"@.	c #F1A205",
"#.	c #F19C05",
"$.	c #805003",
"%.	c #35373F",
"&.	c #151E26",
"*.	c #9BA221",
"=.	c #979D32",
"-.	c #94983C",
";.	c #94953B",
">.	c #94913B",
",.	c #948E3A",
"'.	c #948B39",
").	c #948739",
"!.	c #948338",
"~.	c #958138",
"{.	c #957D37",
"].	c #957A37",
"^.	c #957736",
"/.	c #977230",
"(.	c #9D6A17",
"_.	c #2A2629",
":.	c #424754",
"<.	c #30362A",
"[.	c #4D5128",
"}.	c #515528",
"|.	c #3C4529",
"1.	c #F6F81D",
"2.	c #D7D861",
"3.	c #C7C68B",
"4.	c #C7C48B",
"5.	c #C7C28B",
"6.	c #C7C08A",
"7.	c #C7BF8A",
"8.	c #C7BC8A",
"9.	c #C7BA8A",
"0.	c #C7B989",
"a.	c #C7B789",
"b.	c #C7B589",
"c.	c #C7B388",
"d.	c #D0AD6C",
"e.	c #FAA10C",
"f.	c #37352B",
"g.	c #52552D",
"h.	c #53562B",
"i.	c #31382B",
"j.	c #7A7623",
"k.	c #CFBE14",
"l.	c #DBC812",
"m.	c #807F24",
"n.	c #F6F915",
"o.	c #DBDD30",
"p.	c #CDCC43",
"q.	c #CDC842",
"r.	c #CEC442",
"s.	c #CEBF41",
"t.	c #CEBB40",
"u.	c #CEB640",
"v.	c #CEB23F",
"w.	c #CEAD3E",
"x.	c #CEA93D",
"y.	c #CEA53D",
"z.	c #CEA03C",
"A.	c #D59A2D",
"B.	c #FA9F05",
"C.	c #4D502D",
"D.	c #7C7721",
"E.	c #394157",
"F.	c #8D7D20",
"G.	c #F0C90C",
"H.	c #FED309",
"I.	c #908421",
"J.	c #FCFF10",
"K.	c #F5F434",
"L.	c #E4DF59",
"M.	c #DFD553",
"N.	c #DFD153",
"O.	c #DFCC52",
"P.	c #DFC751",
"Q.	c #DFC450",
"R.	c #E0BF50",
"S.	c #E0BB4F",
"T.	c #E0B64E",
"U.	c #F0B63A",
"V.	c #FDAA0C",
"W.	c #FFA101",
"X.	c #59552C",
"Y.	c #907E1E",
"Z.	c #424A5F",
"`.	c #8D7220",
" +	c #F0B509",
".+	c #FEBE06",
"++	c #907B21",
"@+	c #DEDF52",
"#+	c #B2B19E",
"$+	c #B5B4A1",
"%+	c #BAB8A6",
"&+	c #BAB7A6",
"*+	c #BAB6A5",
"=+	c #BAB5A5",
"-+	c #ABA596",
";+	c #CDAE6C",
">+	c #F9AA16",
",+	c #594F2D",
"'+	c #90731E",
")+	c #434C62",
"!+	c #8E6720",
"~+	c #F1A106",
"{+	c #FFA903",
"]+	c #907322",
"^+	c #CECF4B",
"/+	c #A5A5A5",
"(+	c #C3C3C3",
"_+	c #CBCBCB",
":+	c #AFAFAF",
"<+	c #BEA36A",
"[+	c #F5A614",
"}+	c #5A492F",
"|+	c #91681E",
"1+	c #434C64",
"2+	c #353239",
"3+	c #7C674D",
"4+	c #856D4D",
"5+	c #585641",
"6+	c #C2C33F",
"7+	c #999999",
"8+	c #C2C2C2",
"9+	c #C9C9C9",
"0+	c #B0B0B0",
"a+	c #B2975F",
"b+	c #F0A210",
"c+	c #34394D",
"d+	c #897151",
"e+	c #786144",
"f+	c #3A353A",
"g+	c #0E204B",
"h+	c #B4B9C3",
"i+	c #6C7570",
"j+	c #B5B631",
"k+	c #848484",
"l+	c #AEAEAE",
"m+	c #B3B3B3",
"n+	c #A3A3A3",
"o+	c #A2874E",
"p+	c #EC9D0B",
"q+	c #546282",
"r+	c #D8D8D8",
"s+	c #8F94A0",
"t+	c #46516C",
"u+	c #7E8087",
"v+	c #0A1D4C",
"w+	c #B5B9C4",
"x+	c #6C7572",
"y+	c #A9AA26",
"z+	c #727272",
"A+	c #A0A0A0",
"B+	c #A2A2A2",
"C+	c #937840",
"D+	c #E79907",
"E+	c #556285",
"F+	c #8F94A1",
"G+	c #44506D",
"H+	c #797C85",
"I+	c #081C4F",
"J+	c #6C7673",
"K+	c #9FA01C",
"L+	c #656565",
"M+	c #959595",
"N+	c #969696",
"O+	c #939393",
"P+	c #886C34",
"Q+	c #E49503",
"R+	c #556387",
"S+	c #8F94A2",
"T+	c #444F6F",
"U+	c #091D52",
"V+	c #B5B9C5",
"W+	c #6C7775",
"X+	c #9B9C18",
"Y+	c #585858",
"Z+	c #838383",
"`+	c #828282",
" @	c #81652D",
".@	c #E39402",
"+@	c #55648A",
"@@	c #8F94A3",
"#@	c #445071",
"$@	c #091F56",
"%@	c #B5BAC6",
"&@	c #6C7777",
"*@	c #C0C111",
"=@	c #8B8728",
"-@	c #9C9438",
";@	c #9C9137",
">@	c #9C8E37",
",@	c #9C8B36",
"'@	c #9C8836",
")@	c #9C8535",
"!@	c #9C8235",
"~@	c #9C7E34",
"{@	c #AC7B13",
"]@	c #EE9C02",
"^@	c #55658C",
"/@	c #8F95A3",
"(@	c #445173",
"_@	c #0A215A",
":@	c #B5BAC7",
"<@	c #6D7878",
"[@	c #F3F20F",
"}@	c #E7DF0D",
"|@	c #E8D80C",
"1@	c #E8D10B",
"2@	c #E8CA0A",
"3@	c #E8C309",
"4@	c #E8BC08",
"5@	c #E9B506",
"6@	c #E9AE05",
"7@	c #E9A804",
"8@	c #F0A503",
"9@	c #FCA602",
"0@	c #56668E",
"a@	c #8F95A4",
"b@	c #425074",
"c@	c #253A57",
"d@	c #5D6B6A",
"e@	c #647069",
"f@	c #4A5C5A",
"g@	c #FCFB10",
"h@	c #FCF30E",
"i@	c #FDEC0D",
"j@	c #FDE50C",
"k@	c #FDDD0B",
"l@	c #FDD40A",
"m@	c #FDCD09",
"n@	c #FEC607",
"o@	c #FEB704",
"p@	c #FEAF03",
"q@	c #FFA802",
"r@	c #2B4068",
"s@	c #67746D",
"t@	c #576561",
"u@	c #30435B",
"v@	c #404F74",
"w@	c #848538",
"x@	c #DDCC18",
"y@	c #E9D613",
"z@	c #82863A",
"A@	c #C7CF24",
"B@	c #C7CE24",
"C@	c #C7CB23",
"D@	c #C7C522",
"E@	c #C7BF21",
"F@	c #C8B920",
"G@	c #C8B420",
"H@	c #C8AD1E",
"I@	c #C8A81D",
"J@	c #C8A21C",
"K@	c #C89C1C",
"L@	c #C8961B",
"M@	c #C8911A",
"N@	c #C98B19",
"O@	c #C98518",
"P@	c #55604B",
"Q@	c #868636",
"R@	c #404F76",
"S@	c #172A5B",
"T@	c #8C7F34",
"U@	c #F0C70E",
"V@	c #FDD109",
"W@	c #78723C",
"X@	c #233359",
"Y@	c #455376",
"Z@	c #495779",
"`@	c #475578",
" #	c #313E5E",
".#	c #474F62",
"+#	c #6F7584",
"@#	c #737988",
"##	c #4F5564",
"$#	c #2C3650",
"%#	c #3D4C70",
"&#	c #1E2E58",
"*#	c #5C5F49",
"=#	c #948632",
"-#	c #2D3E66",
";#	c #303C5D",
">#	c #967E3B",
",#	c #F1B30B",
"'#	c #FEBB05",
")#	c #837140",
"!#	c #707174",
"~#	c #6F747F",
"{#	c #3D4354",
"]#	c #707276",
"^#	c #7B7B7B",
"/#	c #7A7A7A",
"(#	c #777777",
"_#	c #616161",
":#	c #4B4E56",
"<#	c #6D717B",
"[#	c #4C4F58",
"}#	c #5C584B",
"|#	c #A68A3D",
"1#	c #27365A",
"2#	c #4D5462",
"3#	c #384565",
"4#	c #8A724B",
"5#	c #CB8E1B",
"6#	c #D79416",
"7#	c #74634B",
"8#	c #7B7C80",
"9#	c #505664",
"0#	c #333948",
"a#	c #88898C",
"b#	c #878787",
"c#	c #868686",
"d#	c #656871",
"e#	c #595F6B",
"f#	c #606163",
"g#	c #504C53",
"h#	c #927749",
"i#	c #333F5E",
"j#	c #525867",
"k#	c #525A6F",
"l#	c #827E81",
"m#	c #907F6C",
"n#	c #94816A",
"o#	c #76757D",
"p#	c #848588",
"q#	c #3F444F",
"r#	c #404551",
"s#	c #88898B",
"t#	c #9C9C9C",
"u#	c #6C6F77",
"v#	c #555B67",
"w#	c #6D6E6F",
"x#	c #666B7F",
"y#	c #817C7D",
"z#	c #505767",
"A#	c #4F5668",
"B#	c #212A40",
"C#	c #67696D",
"D#	c #808184",
"E#	c #343945",
"F#	c #343A4A",
"G#	c #51555F",
"H#	c #595C66",
"I#	c #464B58",
"J#	c #4D5465",
"K#	c #1A2031",
"L#	c #7D7D7F",
"M#	c #6C6C6C",
"N#	c #162241",
"O#	c #353A46",
"P#	c #4D515D",
"Q#	c #3F4551",
"R#	c #293041",
"S#	c #444E66",
"T#	c #4C556B",
"U#	c #4D556B",
"V#	c #4F576C",
"W#	c #696F7E",
"X#	c #111A34",
"Y#	c #434855",
"Z#	c #383D49",
"`#	c #343E56",
" $	c #444F6B",
".$	c #535D74",
"+$	c #555E75",
"@$	c #535C73",
"#$	c #5D6477",
"$$	c #47526E",
"%$	c #545D75",
"&$	c #525B72",
"*$	c #5F677C",
"                                                                ",
"                              . + @                             ",
"                        # $ % & * = - ; >                       ",
"                      , ' ) ! ~ { ] ^ / ( _                     ",
"                    : < [ } | 1 2 3 4 5 6 7 8                   ",
"                    9 0 a b c d e f g h i j k l                 ",
"                  m n o p q r s t u v w x y z A                 ",
"                  B C D E F G H I J K L M N O P Q               ",
"                R S T U V W X Y Z `  ...+.@.#.$.%.              ",
"                &.*.=.-.;.>.,.'.).!.~.{.].^./.(._.:.            ",
"          <.[.}.|.1.2.3.4.5.6.7.8.9.0.a.b.c.d.e.f.g.h.i.        ",
"          j.k.l.m.n.o.p.q.r.s.t.u.v.w.x.y.z.A.B.C.l.l.D.E.      ",
"          F.G.H.I.J.J.K.L.M.N.O.P.Q.R.S.T.U.V.W.X.H.H.Y.Z.      ",
"          `. +.+++J.J.@+#+$+%+&+*+*+=+=+-+;+>+W.,+.+.+'+)+      ",
"          !+~+{+]+J.J.^+/+(+_+_+_+_+_+_+:+<+[+W.}+{+{+|+1+      ",
"          2+3+4+5+J.J.6+7+8+9+9+9+9+9+9+0+a+b+W.c+d+e+f+1+      ",
"          g+h+9+i+J.J.j+k+l+m+m+m+m+m+m+n+o+p+W.q+r+s+t+u+      ",
"          v+w+9+x+J.J.y+z+A+B+B+B+B+B+B+7+C+D+W.E+r+F+G+H+      ",
"          I+w+9+J+J.J.K+L+M+N+N+N+N+N+N+O+P+Q+W.R+r+S+T+        ",
"          U+V+9+W+J.J.X+Y+Z+Z+Z+Z+Z+Z+Z+`+ @.@W.+@r+@@#@        ",
"          $@%@9+&@J.J.*@=@-@;@>@,@'@)@!@~@{@]@W.^@r+/@(@        ",
"          _@:@9+<@J.J.[@}@|@1@2@3@4@5@6@7@8@9@W.0@r+a@b@        ",
"          c@d@e@f@J.J.g@h@i@j@k@l@m@n@.+o@p@q@W.r@s@t@u@v@      ",
"          w@x@y@z@A@B@C@D@E@F@G@H@I@J@K@L@M@N@O@P@y@y@Q@R@      ",
"        S@T@U@V@W@X@Y@Z@`@ #.#+#@#+###$#%#Z@`@&#*#V@V@=#-#      ",
"        ;#>#,#'#)#!#~#    {#]#^#/#(#_#:#<#    [#}#'#'#|#1#2#    ",
"        3#4#5#6#7#8#9#    0#a#b#Z+Z+c#d#e#    f#g#6#6#h#i#j#    ",
"        k#l#m#n#o#p#q#    r#s#t#t#t#t#u#v#    w#x#n#n#y#z#A#    ",
"      B#C#t#t#t#t#D#E#    F#G#H#H#H#H#I#J#  K#L#t#t#t#t#M#.#    ",
"      N#O#P#P#P#P#Q#R#      S#T#U#U#U#V#W#  X#Y#P#P#P#P#Z#`#    ",
"         $.$+$+$+$@$#$                        $$%$+$+$+$&$*$    ",
"                                                                "};
