/* XPM */
static char * flformppal_xpm[] = {
"32 32 540 2",
"  	c None",
". 	c #ECD2B6",
"+ 	c #F1D8BE",
"@ 	c #F1D7BC",
"# 	c #F1D9BF",
"$ 	c #F1DAC3",
"% 	c #EFD6BB",
"& 	c #F0D7BD",
"* 	c #EFD5B9",
"= 	c #EED4B7",
"- 	c #EED5B9",
"; 	c #EFD9C0",
"> 	c #EED3B8",
", 	c #EFD7BC",
"' 	c #EED6BB",
") 	c #EDD2B2",
"! 	c #ECD1B2",
"~ 	c #EDD3B3",
"{ 	c #EDD3B7",
"] 	c #EBD0AF",
"^ 	c #EBD0AE",
"/ 	c #EDD4B8",
"( 	c #EBD2B3",
"_ 	c #EAD0AF",
": 	c #EACFAF",
"< 	c #E8CDAC",
"[ 	c #E9CEAC",
"} 	c #EBD3B6",
"| 	c #EAD1B2",
"1 	c #DEC4A3",
"2 	c #DFC09F",
"3 	c #E3C19B",
"4 	c #EBCCA9",
"5 	c #ECCEAD",
"6 	c #E9C7A2",
"7 	c #EAC9A6",
"8 	c #E9C6A1",
"9 	c #E8C59E",
"0 	c #E9C7A1",
"a 	c #EACCA9",
"b 	c #E7C59F",
"c 	c #E9C9A5",
"d 	c #E8C8A3",
"e 	c #E7C399",
"f 	c #E5C197",
"g 	c #E6C39C",
"h 	c #E6C49E",
"i 	c #E5C299",
"j 	c #E4C095",
"k 	c #E4C094",
"l 	c #E6C59F",
"m 	c #E4C198",
"n 	c #E2BF93",
"o 	c #E3BD90",
"p 	c #E0BB8D",
"q 	c #E1BC90",
"r 	c #E4C39B",
"s 	c #E2C096",
"t 	c #D5B389",
"u 	c #DCBC96",
"v 	c #DCBE9E",
"w 	c #E9C9A6",
"x 	c #DEBD9A",
"y 	c #C6A884",
"z 	c #B49777",
"A 	c #B39773",
"B 	c #B39573",
"C 	c #B49674",
"D 	c #B59B7B",
"E 	c #B39673",
"F 	c #B59878",
"G 	c #B59977",
"H 	c #B49671",
"I 	c #B49570",
"J 	c #B59873",
"K 	c #B59773",
"L 	c #B69870",
"M 	c #B4956E",
"N 	c #B6966F",
"O 	c #B79B76",
"P 	c #B69772",
"Q 	c #B5966E",
"R 	c #B6966C",
"S 	c #B5966D",
"T 	c #B6966D",
"U 	c #B89A74",
"V 	c #C6A77D",
"W 	c #D9B689",
"X 	c #DFBE93",
"Y 	c #D7B58C",
"Z 	c #D5B691",
"` 	c #EACBAA",
" .	c #79896D",
"..	c #7A9076",
"+.	c #7B9279",
"@.	c #7E937A",
"#.	c #7F957C",
"$.	c #81967E",
"%.	c #829880",
"&.	c #849981",
"*.	c #859A82",
"=.	c #869A82",
"-.	c #869A83",
";.	c #869B83",
">.	c #869C84",
",.	c #869C83",
"'.	c #859C82",
").	c #849B81",
"!.	c #829B80",
"~.	c #819A7E",
"{.	c #80997D",
"].	c #7F987B",
"^.	c #7D987A",
"/.	c #7E9171",
"(.	c #D2B082",
"_.	c #DEBA8B",
":.	c #D5B48B",
"<.	c #D1AF8A",
"[.	c #E6C39A",
"}.	c #D5BA97",
"|.	c #7E987B",
"1.	c #839D81",
"2.	c #879F83",
"3.	c #89A185",
"4.	c #8BA488",
"5.	c #8DA68A",
"6.	c #8FA88D",
"7.	c #91A98E",
"8.	c #92AA8E",
"9.	c #93AB90",
"0.	c #93AB91",
"a.	c #93AC90",
"b.	c #94AC90",
"c.	c #92AC8F",
"d.	c #91AA8D",
"e.	c #90AA8C",
"f.	c #8EA98B",
"g.	c #8CA888",
"h.	c #8BA787",
"i.	c #89A585",
"j.	c #87A483",
"k.	c #85A281",
"l.	c #D5B68B",
"m.	c #DBB482",
"n.	c #D0AF85",
"o.	c #CCAB84",
"p.	c #E5C095",
"q.	c #DCBF99",
"r.	c #92AF8E",
"s.	c #94B190",
"t.	c #96B393",
"u.	c #99B595",
"v.	c #9AB797",
"w.	c #9CB899",
"x.	c #9EB99A",
"y.	c #9FBA9C",
"z.	c #A0BB9D",
"A.	c #A1BC9D",
"B.	c #A1BC9E",
"C.	c #A0BB9C",
"D.	c #9FBA9B",
"E.	c #9DB99A",
"F.	c #9BB798",
"G.	c #9AB696",
"H.	c #97B494",
"I.	c #95B292",
"J.	c #93B08F",
"K.	c #91AE8D",
"L.	c #8EAC8A",
"M.	c #8CAA88",
"N.	c #D8BC96",
"O.	c #DBB686",
"P.	c #CCA97C",
"Q.	c #C8A883",
"R.	c #E4C093",
"S.	c #D9BC95",
"T.	c #90AE8C",
"U.	c #92B08E",
"V.	c #94B191",
"W.	c #98B594",
"X.	c #9EBA9B",
"Y.	c #9EB99B",
"Z.	c #9DB999",
"`.	c #9CB898",
" +	c #97B493",
".+	c #93B18F",
"++	c #98B595",
"@+	c #8FAD8B",
"#+	c #8CAB88",
"$+	c #8AA986",
"%+	c #D4B68C",
"&+	c #DDBB8C",
"*+	c #C9A77C",
"=+	c #C3A27B",
"-+	c #E3C196",
";+	c #D7B88E",
">+	c #95B291",
",+	c #96B292",
"'+	c #9AB697",
")+	c #9BB797",
"!+	c #9DB899",
"~+	c #98B494",
"{+	c #9DB89A",
"]+	c #C2D2BF",
"^+	c #8FAC8B",
"/+	c #8AA987",
"(+	c #88A784",
"_+	c #D4B48A",
":+	c #D8B37F",
"<+	c #C8A77D",
"[+	c #BD9C73",
"}+	c #E2BD90",
"|+	c #D5B58B",
"1+	c #98B496",
"2+	c #D0DCCE",
"3+	c #BED0BD",
"4+	c #96B392",
"5+	c #97B393",
"6+	c #A9C1A7",
"7+	c #D2DED0",
"8+	c #ABC2A7",
"9+	c #97B293",
"0+	c #8BA987",
"a+	c #88A884",
"b+	c #86A682",
"c+	c #D0AF81",
"d+	c #DAB684",
"e+	c #C29F71",
"f+	c #B9986D",
"g+	c #DEB889",
"h+	c #B4C8B2",
"i+	c #CFDCCE",
"j+	c #92B08F",
"k+	c #94B090",
"l+	c #A0B99D",
"m+	c #C2D3BF",
"n+	c #B8CCB6",
"o+	c #C1D1BE",
"p+	c #95B392",
"q+	c #93B190",
"r+	c #91AF8D",
"s+	c #BBCDB8",
"t+	c #9DB79A",
"u+	c #84A480",
"v+	c #CBA773",
"w+	c #D9B480",
"x+	c #BF9F72",
"y+	c #DFB988",
"z+	c #D0AB7A",
"A+	c #87A683",
"B+	c #8DAB89",
"C+	c #C9D7C7",
"D+	c #9EB89A",
"E+	c #BFD1BD",
"F+	c #CCDACB",
"G+	c #A7BEA3",
"H+	c #9AB596",
"I+	c #D5E1D3",
"J+	c #CCDACA",
"K+	c #D1DDCF",
"L+	c #A9C1A8",
"M+	c #90AD8C",
"N+	c #D4E0D3",
"O+	c #CAD8C9",
"P+	c #89A885",
"Q+	c #82A27E",
"R+	c #C8A36D",
"S+	c #D4AD75",
"T+	c #BC9B6D",
"U+	c #B1946B",
"V+	c #E0BD91",
"W+	c #CEAB78",
"X+	c #86A582",
"Y+	c #A7BEA4",
"Z+	c #BDCEBB",
"`+	c #8BAA87",
" @	c #8EAD8A",
".@	c #D3DFD2",
"+@	c #A1BA9E",
"@@	c #BFD0BD",
"#@	c #CDDBCC",
"$@	c #9FB99B",
"%@	c #DCE5DA",
"&@	c #C2D3C0",
"*@	c #DDE6DC",
"=@	c #95B191",
"-@	c #82A27F",
";@	c #80A07C",
">@	c #C8A36E",
",@	c #D2A76C",
"'@	c #B69362",
")@	c #AE8E63",
"!@	c #DEBC8E",
"~@	c #CFAC7D",
"{@	c #84A481",
"]@	c #CBD9C9",
"^@	c #8CA988",
"/@	c #89A785",
"(@	c #A1B99D",
"_@	c #CCD9C9",
":@	c #97B193",
"<@	c #C7D5C5",
"[@	c #80A07B",
"}@	c #7E9F7A",
"|@	c #C49D64",
"1@	c #D2AC73",
"2@	c #B18D59",
"3@	c #B3946A",
"4@	c #DCB685",
"5@	c #CCAA7B",
"6@	c #83A27F",
"7@	c #D7E2D6",
"8@	c #BDCEBC",
"9@	c #B4C7B2",
"0@	c #A3BA9F",
"a@	c #87A783",
"b@	c #91AD8D",
"c@	c #C5D5C3",
"d@	c #B7CAB5",
"e@	c #ABC1A9",
"f@	c #85A581",
"g@	c #84A380",
"h@	c #96B091",
"i@	c #8EAB8A",
"j@	c #7E9E7A",
"k@	c #7B9D77",
"l@	c #C6A26B",
"m@	c #CFA567",
"n@	c #AF8C5C",
"o@	c #B59365",
"p@	c #DCBA8B",
"q@	c #CAA673",
"r@	c #7D9E79",
"s@	c #82A17E",
"t@	c #82A37F",
"u@	c #84A47F",
"v@	c #88A684",
"w@	c #85A481",
"x@	c #83A37F",
"y@	c #81A17D",
"z@	c #7FA07B",
"A@	c #7F9F7B",
"B@	c #7B9C77",
"C@	c #799B75",
"D@	c #C5A26C",
"E@	c #D2AB71",
"F@	c #AB8651",
"G@	c #B59261",
"H@	c #DAB480",
"I@	c #CAA977",
"J@	c #7B9C76",
"K@	c #7C9D78",
"L@	c #7F9F7A",
"M@	c #81A17C",
"N@	c #81A27D",
"O@	c #83A37E",
"P@	c #80A17C",
"Q@	c #7A9B76",
"R@	c #789A74",
"S@	c #779972",
"T@	c #C4A067",
"U@	c #D1AB71",
"V@	c #AA8755",
"W@	c #B99664",
"X@	c #D6AD75",
"Y@	c #C8A570",
"Z@	c #7A9C76",
"`@	c #779973",
" #	c #769871",
".#	c #749770",
"+#	c #C29C62",
"@#	c #CFA667",
"##	c #A68552",
"$#	c #BA9866",
"%#	c #D7AF78",
"&#	c #C5A068",
"*#	c #759871",
"=#	c #89A786",
"-#	c #A8BCA5",
";#	c #7D9D78",
">#	c #7D9E78",
",#	c #769872",
"'#	c #759770",
")#	c #73966F",
"!#	c #72946D",
"~#	c #C3A069",
"{#	c #CBA05E",
"]#	c #A7854F",
"^#	c #BB9762",
"/#	c #D6B079",
"(#	c #C4A06A",
"_#	c #73956E",
":#	c #749670",
"<#	c #759771",
"[#	c #C8D5C6",
"}#	c #BDC0BD",
"|#	c #7C9C77",
"1#	c #7A9B75",
"2#	c #789973",
"3#	c #72956E",
"4#	c #70946C",
"5#	c #6F926B",
"6#	c #BF995D",
"7#	c #D0A96D",
"8#	c #AA854B",
"9#	c #C19E6C",
"0#	c #D2A96F",
"a#	c #C39E69",
"b#	c #6C8E67",
"c#	c #6D8F69",
"d#	c #6E906A",
"e#	c #7E9C7A",
"f#	c #ECEDEC",
"g#	c #929F91",
"h#	c #6F916B",
"i#	c #71936E",
"j#	c #72936E",
"k#	c #72936F",
"l#	c #71936D",
"m#	c #71926C",
"n#	c #70916B",
"o#	c #6F916A",
"p#	c #6E9069",
"q#	c #6D8F68",
"r#	c #6B8E67",
"s#	c #6A8C65",
"t#	c #688B64",
"u#	c #BD9559",
"v#	c #C99F5B",
"w#	c #B38F58",
"x#	c #C19C67",
"y#	c #D6B17B",
"z#	c #C69F65",
"A#	c #6B845E",
"B#	c #658561",
"C#	c #658662",
"D#	c #B9C8B8",
"E#	c #C2C4C2",
"F#	c #617C5F",
"G#	c #698865",
"H#	c #698965",
"I#	c #6A8965",
"J#	c #688865",
"K#	c #688864",
"L#	c #678763",
"M#	c #668662",
"N#	c #658562",
"O#	c #658460",
"P#	c #64845F",
"Q#	c #62835E",
"R#	c #69815B",
"S#	c #C1995A",
"T#	c #C99E58",
"U#	c #B38C50",
"V#	c #C39D64",
"W#	c #D3AC72",
"X#	c #C49F66",
"Y#	c #D8B582",
"Z#	c #DAB98A",
"`#	c #DFC397",
" $	c #F1F0EE",
".$	c #C0B6A6",
"+$	c #DABC8E",
"@$	c #DDC196",
"#$	c #DABC8C",
"$$	c #D7B683",
"%$	c #DBBC8F",
"&$	c #D9BB8B",
"*$	c #D9B989",
"=$	c #DABC8F",
"-$	c #DBBE92",
";$	c #D7B684",
">$	c #D7B989",
",$	c #D8B989",
"'$	c #D5B37F",
")$	c #D7B785",
"!$	c #D6B683",
"~$	c #CFAB71",
"{$	c #BD9554",
"]$	c #C89E58",
"^$	c #B99254",
"/$	c #C49E63",
"($	c #C7A064",
"_$	c #CEA261",
":$	c #D0A562",
"<$	c #E8D4B7",
"[$	c #CCCBC9",
"}$	c #A08359",
"|$	c #CEA464",
"1$	c #C99D59",
"2$	c #CBA161",
"3$	c #C89B56",
"4$	c #CCA263",
"5$	c #CEA86B",
"6$	c #C99D5A",
"7$	c #C9A05F",
"8$	c #CA9F5E",
"9$	c #C69953",
"0$	c #C89E5B",
"a$	c #CCA465",
"b$	c #C89C59",
"c$	c #CAA15F",
"d$	c #CAA05F",
"e$	c #C59A53",
"f$	c #C3954D",
"g$	c #C79E5B",
"h$	c #C09552",
"i$	c #BD9757",
"j$	c #BF9A62",
"k$	c #CEA566",
"l$	c #CDA15F",
"m$	c #CFA462",
"n$	c #D2AD74",
"o$	c #F2EFEA",
"p$	c #C0B29D",
"q$	c #C19D68",
"r$	c #CEA361",
"s$	c #C99E5B",
"t$	c #CDA361",
"u$	c #CAA05E",
"v$	c #C89B55",
"w$	c #CCA261",
"x$	c #CDA769",
"y$	c #C79B57",
"z$	c #C99E5A",
"A$	c #C69952",
"B$	c #C79D59",
"C$	c #CBA363",
"D$	c #C69B56",
"E$	c #C9A05D",
"F$	c #C3974F",
"G$	c #C2954B",
"H$	c #C79D58",
"I$	c #C3964D",
"J$	c #C79C57",
"K$	c #B99253",
"L$	c #ADADAD",
"M$	c #CFCFCF",
"N$	c #272727",
"O$	c #969696",
"                                                                ",
"                                                                ",
"                                                                ",
"  . + @ # $ % & * = - ; > , ' ) ! ~ { ! ] ^ / ( _ : < [ } | 1   ",
"  2 3 4 5 6 7 8 9 0 a b c d e f g h i j k l m n o p q r s t u   ",
"  v w x y z A B C D E F G H I J K L M N O P Q R S T U V W X Y   ",
"  Z ` Z  ...+.@.#.$.%.&.*.=.-.;.;.>.,.,.'.).!.~.{.].^./.(._.:.  ",
"  <.[.}.|.~.1.2.3.4.5.6.7.8.9.0.a.b.a.c.d.e.f.g.h.i.j.k.l.m.n.  ",
"  o.p.q.r.s.t.u.v.w.x.y.z.A.B.B.A.C.D.E.F.G.H.I.J.K.L.M.N.O.P.  ",
"  Q.R.S.T.U.V.t.W.G.F.w.E.x.X.Y.x.Z.`.v.u. +I..+++@+#+$+%+&+*+  ",
"  =+-+;+L.T.s.>+,+ +++G.'+)+!+)+)+G.u.~+t.>+J.{+]+^+/+(+_+:+<+  ",
"  [+}+|+M.1+2+3+s.V.4+5+++6+7+8+~+ +t.>+s.U.V.7+9+0+a+b+c+d+e+  ",
"  f+g+(./+h+F.i+j+k+~+>+l+m+n+o+5+4+p+q+r+r+h+s+t+a+b+u+v+w+x+  ",
"  L y+z+A+B+C+D+T.E+F+G+J.H+I+,+s.J+K+L+@+M+N+r.O+P+u+Q+R+S+T+  ",
"  U+V+W+X+Y+Z+M.`+ @1+@+r..@+@@+r+@@#@$@B+9+%@&@*@=@-@;@>@,@'@  ",
"  )@!@~@{@]@^@/@P+P+$+`+(@_@M+@+:@B+B+$+P+(+P+/@<@/+[@}@|@1@2@  ",
"  3@4@5@6@7@8@9@0@L.a@(+b@c@d@e@$+(+(+A+X+f@g@-@h@i@j@k@l@m@n@  ",
"  o@p@q@r@s@Q+t@u@g@u+f@X+v@a@A+X+f@w@u+x@Q+y@z@A@r@B@C@D@E@F@  ",
"  G@H@I@J@K@r@L@;@M@N@Q+O@x@x@x@x@Q+Q+y@P@z@}@r@k@Q@R@S@T@U@V@  ",
"  W@X@Y@R@C@B@K@r@}@L@z@[@;@;@;@;@z@A@}@r@K@k@Z@C@`@ #.#+#@###  ",
"  $#%#&#*#S@R@C@=#-#;#K@>#r@r@r@>#K@K@k@Z@C@R@`@,#'#)#!#~#{#]#  ",
"  ^#/#(#_#:#<#,#[#}#|#C@C@Q@Q@Q@1#C@C@R@2#S@ #'#)#3#4#5#6#7#8#  ",
"  9#0#a#b#c#d#e#f#g#h#i#i#j#k#k#j#i#i#l#m#n#o#p#q#r#s#t#u#v#w#  ",
"  x#y#z#A#B#C#D#E#F#G#H#H#I#I#I#I#H#H#J#K#L#M#N#O#P#Q#R#S#T#U#  ",
"  V#W#X#Y#Z#`# $.$+$@$#$$$%$&$*$=$-$;$>$,$'$)$#$!$>$,$~${$]$^$  ",
"  /$($@#_$:$<$[$}$U@|$1$|$2$3$4$5$6$7$8$9$0$a$b$c$d$e$f$g$h$i$  ",
"  j$k$l$m$n$o$p$q$r$s$t$u$v$w$x$y$v#z$A$B$C$D$E$E$F$G$H$I$J$K$  ",
"          L$M$N$                                                ",
"            O$                                                  ",
"                                                                ",
"                                                                ",
"                                                                "};
