/* XPM */
static char * flfactgraf_xpm[] = {
"32 32 507 2",
"  	c None",
". 	c #AA0000",
"+ 	c #C30000",
"@ 	c #FF0C0C",
"# 	c #B40909",
"$ 	c #330000",
"% 	c #9A009A",
"& 	c #DA00DC",
"* 	c #FA02FA",
"= 	c #FF03FF",
"- 	c #FF02FF",
"; 	c #FF01FF",
"> 	c #FF00FF",
", 	c #F300FA",
"' 	c #E700EE",
") 	c #CB00D1",
"! 	c #95009A",
"~ 	c #F20000",
"{ 	c #FF3A3A",
"] 	c #FA6B6B",
"^ 	c #A90C0C",
"/ 	c #6B0000",
"( 	c #DB00DF",
"_ 	c #FF0CFF",
": 	c #FF1EFF",
"< 	c #FE18FF",
"[ 	c #F50DFB",
"} 	c #EF07F6",
"| 	c #EC03F3",
"1 	c #EA00F1",
"2 	c #EC00F3",
"3 	c #EC00F4",
"4 	c #EF00F7",
"5 	c #D800DF",
"6 	c #96009A",
"7 	c #FF0404",
"8 	c #FF6A6A",
"9 	c #FE9090",
"0 	c #DF2D2D",
"a 	c #B00000",
"b 	c #910000",
"c 	c #310000",
"d 	c #750079",
"e 	c #F304FA",
"f 	c #EA08F0",
"g 	c #E103E8",
"h 	c #DC00E3",
"i 	c #DB00E2",
"j 	c #DA00E1",
"k 	c #DC00E2",
"l 	c #DE00E5",
"m 	c #C100C8",
"n 	c #88008D",
"o 	c #410044",
"p 	c #FF0909",
"q 	c #FF8888",
"r 	c #FB9191",
"s 	c #DF1717",
"t 	c #CB0000",
"u 	c #BC0000",
"v 	c #A30000",
"w 	c #680000",
"x 	c #D700DE",
"y 	c #EB00F3",
"z 	c #D900E0",
"A 	c #D300DA",
"B 	c #A000A5",
"C 	c #760079",
"D 	c #FD0505",
"E 	c #FF8C8C",
"F 	c #FA9393",
"G 	c #DB0C0C",
"H 	c #CA0000",
"I 	c #CC0000",
"J 	c #C60000",
"K 	c #B10000",
"L 	c #8F0000",
"M 	c #2B0000",
"N 	c #8B008F",
"O 	c #F300FB",
"P 	c #E300EB",
"Q 	c #C200C8",
"R 	c #8D0091",
"S 	c #530056",
"T 	c #EE0000",
"U 	c #FF7373",
"V 	c #FBA0A0",
"W 	c #DB0D0D",
"X 	c #CD0000",
"Y 	c #BD0000",
"Z 	c #A10000",
"` 	c #630000",
" .	c #E200E9",
"..	c #DA00E0",
"+.	c #A800AE",
"@.	c #7D0081",
"#.	c #240026",
"$.	c #FF3F3F",
"%.	c #FEAFAF",
"&.	c #E11D1D",
"*.	c #AF0000",
"=.	c #8C0000",
"-.	c #A400A9",
";.	c #F200FA",
">.	c #C800CF",
",.	c #920097",
"'.	c #600063",
").	c #FF0D0D",
"!.	c #FF9A9A",
"~.	c #EC4646",
"{.	c #A00000",
"].	c #5F0000",
"^.	c #EB00F2",
"/.	c #E800EF",
"(.	c #DD00E3",
"_.	c #B000B6",
":.	c #820086",
"<.	c #320033",
"[.	c #CF0000",
"}.	c #FF5252",
"|.	c #FA7C7C",
"1.	c #D40101",
"2.	c #C40000",
"3.	c #AE0000",
"4.	c #890000",
"5.	c #B800BE",
"6.	c #F000F7",
"7.	c #E100E8",
"8.	c #CF00D5",
"9.	c #98009D",
"0.	c #6B006E",
"a.	c #0E263A",
"b.	c #214265",
"c.	c #193A5E",
"d.	c #062441",
"e.	c #FF7B7B",
"f.	c #E12727",
"g.	c #BA0000",
"h.	c #9E0000",
"i.	c #5A0000",
"j.	c #87008C",
"k.	c #410040",
"l.	c #446182",
"m.	c #627796",
"n.	c #576B8C",
"o.	c #324C6E",
"p.	c #000D1B",
"q.	c #B20000",
"r.	c #E71616",
"s.	c #C12727",
"t.	c #B60000",
"u.	c #BE0000",
"v.	c #C50000",
"w.	c #C90000",
"x.	c #AD0000",
"y.	c #860000",
"z.	c #CC00D1",
"A.	c #9E00A4",
"B.	c #740078",
"C.	c #415B7E",
"D.	c #596D8D",
"E.	c #637795",
"F.	c #556987",
"G.	c #091B2E",
"H.	c #800000",
"I.	c #980000",
"J.	c #B50000",
"K.	c #C80000",
"L.	c #9D0000",
"M.	c #540000",
"N.	c #FE00FF",
"O.	c #D700D7",
"P.	c #4F0052",
"Q.	c #3F5B7F",
"R.	c #5D7292",
"S.	c #687C9B",
"T.	c #627592",
"U.	c #122236",
"V.	c #380000",
"W.	c #7E0000",
"X.	c #940000",
"Y.	c #B30000",
"Z.	c #BB0000",
"`.	c #C20000",
" +	c #AC0000",
".+	c #830000",
"++	c #881EC4",
"@+	c #7D17AE",
"#+	c #720178",
"$+	c #210021",
"%+	c #445F83",
"&+	c #647898",
"*+	c #6F83A1",
"=+	c #667A97",
"-+	c #132336",
";+	c #300000",
">+	c #550000",
",+	c #780000",
"'+	c #9F0000",
")+	c #A80000",
"!+	c #B90000",
"~+	c #C10000",
"{+	c #454C76",
"]+	c #4389C6",
"^+	c #2F74AF",
"/+	c #2066A1",
"(+	c #1E1C56",
"_+	c #486387",
":+	c #697E9E",
"<+	c #7589A7",
"[+	c #6A7D9A",
"}+	c #9F7F00",
"|+	c #C79400",
"1+	c #270000",
"2+	c #4C0000",
"3+	c #710000",
"4+	c #8A0000",
"5+	c #9C0000",
"6+	c #A60000",
"7+	c #91050C",
"8+	c #3F6FAB",
"9+	c #5F91CE",
"0+	c #5F8FCD",
"a+	c #5B8BC6",
"b+	c #0F3E65",
"c+	c #4C678A",
"d+	c #6F83A3",
"e+	c #7A8EAC",
"f+	c #6E819E",
"g+	c #122336",
"h+	c #E4BD03",
"i+	c #FFD20E",
"j+	c #FFBF00",
"k+	c #FBB100",
"l+	c #CA8D00",
"m+	c #430000",
"n+	c #6A0000",
"o+	c #7B0B15",
"p+	c #366AA8",
"q+	c #598DCD",
"r+	c #6797D4",
"s+	c #6D98D3",
"t+	c #244D79",
"u+	c #506A8D",
"v+	c #7387A7",
"w+	c #7E92B1",
"x+	c #7083A0",
"y+	c #F9CD05",
"z+	c #FFD51E",
"A+	c #D8AD1D",
"B+	c #B2A340",
"C+	c #B4A541",
"D+	c #CDAB25",
"E+	c #F1AD00",
"F+	c #CB9300",
"G+	c #866200",
"H+	c #2C0C19",
"I+	c #3A6EAD",
"J+	c #6395D5",
"K+	c #6F9EDD",
"L+	c #739EDA",
"M+	c #254E7B",
"N+	c #536C90",
"O+	c #768AA9",
"P+	c #8295B4",
"Q+	c #7184A2",
"R+	c #FFD202",
"S+	c #DAC238",
"T+	c #53A5DA",
"U+	c #329DFB",
"V+	c #329EFB",
"W+	c #1C84DC",
"X+	c #988B33",
"Y+	c #FDB400",
"Z+	c #FDB700",
"`+	c #DA9E00",
" @	c #936A00",
".@	c #3A73B3",
"+@	c #6B9BDB",
"@@	c #77A5E4",
"#@	c #78A4E0",
"$@	c #556D92",
"%@	c #788BAA",
"&@	c #8497B5",
"*@	c #7185A2",
"=@	c #112235",
"-@	c #FFD000",
";@	c #9FAE69",
">@	c #48AEFF",
",@	c #62BFFF",
"'@	c #6BC5FF",
")@	c #47A7FF",
"!@	c #466B6E",
"~@	c #D39500",
"{@	c #F9B300",
"]@	c #F7B303",
"^@	c #F6B305",
"/@	c #FDB703",
"(@	c #FEB700",
"_@	c #E1A000",
":@	c #7E6B1C",
"<@	c #3F76B4",
"[@	c #6E9FE0",
"}@	c #7CAAE9",
"|@	c #7CA8E4",
"1@	c #556E92",
"2@	c #788CAA",
"3@	c #7084A1",
"4@	c #102134",
"5@	c #FFCB00",
"6@	c #9CAA68",
"7@	c #41A9FF",
"8@	c #6AC6FF",
"9@	c #75CEFF",
"0@	c #5DB6FF",
"a@	c #436973",
"b@	c #C08700",
"c@	c #B48D59",
"d@	c #786FC4",
"e@	c #716ACB",
"f@	c #7167C4",
"g@	c #8B6D4F",
"h@	c #AD7B00",
"i@	c #796516",
"j@	c #4278B5",
"k@	c #72A2E3",
"l@	c #80AEED",
"m@	c #7FAAE7",
"n@	c #244E7B",
"o@	c #556E91",
"p@	c #778BA9",
"q@	c #8396B4",
"r@	c #6E829F",
"s@	c #0F1F33",
"t@	c #FFC600",
"u@	c #9DA963",
"v@	c #4BB2FF",
"w@	c #72CEFF",
"x@	c #7DD6FF",
"y@	c #60BAFF",
"z@	c #446970",
"A@	c #B27E00",
"B@	c #7F79D1",
"C@	c #868DFF",
"D@	c #868BFF",
"E@	c #8389FF",
"F@	c #4649B6",
"G@	c #2F2000",
"H@	c #08151C",
"I@	c #4077B9",
"J@	c #75A4E4",
"K@	c #81AFED",
"L@	c #7EAAE6",
"M@	c #546D90",
"N@	c #8294B2",
"O@	c #6B7F9C",
"P@	c #0E1F31",
"Q@	c #FDBA00",
"R@	c #9FAA61",
"S@	c #50B6FF",
"T@	c #77D3FF",
"U@	c #83DCFF",
"V@	c #64BDFF",
"W@	c #42686E",
"X@	c #A07100",
"Y@	c #726DD3",
"Z@	c #8E93FF",
"`@	c #9DA1FF",
" #	c #9FA2FF",
".#	c #5053BE",
"+#	c #4279B9",
"@#	c #75A3E2",
"##	c #80AEEC",
"$#	c #7DA9E4",
"%#	c #214B77",
"&#	c #526B8E",
"*#	c #7285A3",
"=#	c #7E91AE",
"-#	c #677A96",
";#	c #0C1D30",
">#	c #E09F00",
",#	c #A3AC61",
"'#	c #51B8FF",
")#	c #79D4FF",
"!#	c #85DEFF",
"~#	c #65BEFF",
"{#	c #365D6D",
"]#	c #745200",
"^#	c #6F6DD3",
"/#	c #989DFF",
"(#	c #A5A8FF",
"_#	c #A4A7FF",
":#	c #5153BD",
"<#	c #4179B8",
"[#	c #72A0DE",
"}#	c #7DABE8",
"|#	c #79A4DF",
"1#	c #1D4874",
"2#	c #4F688B",
"3#	c #7A8DA9",
"4#	c #617591",
"5#	c #0A1B2E",
"6#	c #9D6C00",
"7#	c #ABAF61",
"8#	c #51B7FF",
"9#	c #78D2FF",
"0#	c #84DCFF",
"a#	c #63BBFF",
"b#	c #2A546A",
"c#	c #523801",
"d#	c #6B69D7",
"e#	c #9EA1FF",
"f#	c #A9ACFF",
"g#	c #A6AAFF",
"h#	c #5052BD",
"i#	c #3F76B5",
"j#	c #6D9BD8",
"k#	c #79A6E2",
"l#	c #739ED8",
"m#	c #1A4470",
"n#	c #4C6588",
"o#	c #697B99",
"p#	c #7587A4",
"q#	c #5B6F8C",
"r#	c #07192C",
"s#	c #9EA561",
"t#	c #50B5FF",
"u#	c #73CBFF",
"v#	c #80D6FF",
"w#	c #60B6FC",
"x#	c #134367",
"y#	c #0A0604",
"z#	c #6164E0",
"A#	c #9EA2FF",
"B#	c #A8ABFF",
"C#	c #4C4EB8",
"D#	c #3C74B3",
"E#	c #6895D0",
"F#	c #74A0DA",
"G#	c #6C97D1",
"H#	c #16406B",
"I#	c #486284",
"J#	c #637692",
"K#	c #70829E",
"L#	c #566986",
"M#	c #06182A",
"N#	c #667B60",
"O#	c #53B5FF",
"P#	c #6CC3FF",
"Q#	c #79CDFF",
"R#	c #59AEF9",
"S#	c #033867",
"T#	c #6265E4",
"U#	c #999CFF",
"V#	c #A2A5FF",
"W#	c #9DA0FF",
"X#	c #4749B1",
"Y#	c #3870B0",
"Z#	c #618DC9",
"`#	c #6D98D1",
" $	c #6690C8",
".$	c #123C67",
"+$	c #415B7D",
"@$	c #5E708D",
"#$	c #6A7C98",
"$$	c #4E627E",
"%$	c #041526",
"&$	c #4DB0FF",
"*$	c #68BBFF",
"=$	c #74C5FF",
"-$	c #51A4F4",
";$	c #03355F",
">$	c #5E60E5",
",$	c #9194FF",
"'$	c #9A9DFF",
")$	c #9497FF",
"!$	c #4244AB",
"~$	c #2A629E",
"{$	c #5C88C3",
"]$	c #6993CB",
"^$	c #5A83BA",
"/$	c #0D3155",
"($	c #314B6E",
"_$	c #5C6E8B",
":$	c #667793",
"<$	c #3D506C",
"[$	c #010D1A",
"}$	c #1A70BE",
"|$	c #3085D7",
"1$	c #3386D5",
"2$	c #1F6BB2",
"3$	c #001729",
"4$	c #2D2F80",
"5$	c #5659D4",
"6$	c #585BD1",
"7$	c #5356CA",
"8$	c #232463",
"9$	c #0B3357",
"0$	c #2A5C93",
"a$	c #2F5D90",
"b$	c #214F7F",
"c$	c #021527",
"d$	c #0F253E",
"e$	c #2A425F",
"f$	c #2D435E",
"g$	c #142941",
"h$	c #001427",
"                                                                ",
"                    .                                           ",
"                + @ # $       % & * = - ; > , ' ) !             ",
"              ~ { ] ^ /     ( _ : < [ } | 1 2 3 4 5 6           ",
"            7 8 9 0 a b c   d e f g h i j j k l m n o           ",
"          p q r s t u v w     x y l z j j j i A B C             ",
"        D E F G H I J K L M   N O P j j j j h Q R S             ",
"      T U V W H I X t Y Z `      .1 l ..j i x +.@.#.            ",
"    u $.%.&.H I I I X J *.=.    -.;. .j j h >.,.'.              ",
"    ).!.~.X t I I I X t u {.].    ^./.(.j j _.:.<.              ",
"  [.}.|.1.t I I I I I X 2.3.4.    5.6.7.h 8.9.0.  a.b.c.d.      ",
"  ).e.f.H X X I I I I X t g.h.i.    6.' h 5.j.k.  l.m.n.o.p.    ",
"q.r.s.t.u.v.w.I X X I I X 2.x.y.    z.4 5 A.B.    C.D.E.F.G.    ",
"  w H.I.v x.J.Y + K.t X X t g.L.M.    N.O.N P.    Q.R.S.T.U.    ",
"      V.].W.X.Z . Y.Z.`.K.I 2. +.+    ++@+#+$+    %+&+*+=+-+    ",
"            ;+>+,+L '+)+q.!+~+g.X.{+]+^+/+(+      _+:+<+[+-+    ",
"    }+|+          1+2+3+4+5+6+Y.7+8+9+0+a+b+      c+d+e+f+g+    ",
"    h+i+j+k+l+            m+n+4.o+p+q+r+s+t+      u+v+w+x+g+    ",
"    y+z+A+B+C+D+E+F+G+          H+I+J+K+L+M+      N+O+P+Q+g+    ",
"    R+S+T+U+V+W+X+Y+j+Z+`+ @      .@+@@@#@M+      $@%@&@*@=@    ",
"    -@;@>@,@'@)@!@~@{@]@^@/@(@_@:@<@[@}@|@M+      1@2@&@3@4@    ",
"    5@6@7@8@9@0@a@b@c@d@e@f@g@h@i@j@k@l@m@n@      o@p@q@r@s@    ",
"    t@u@v@w@x@y@z@A@B@C@D@E@F@G@H@I@J@K@L@t+      M@<+N@O@P@    ",
"    Q@R@S@T@U@V@W@X@Y@Z@`@ #.#    +#@###$#%#      &#*#=#-#;#    ",
"    >#,#'#)#!#~#{#]#^#/#(#_#:#    <#[#}#|#1#      2#f+3#4#5#    ",
"    6#7#8#9#0#a#b#c#d#e#f#g#h#    i#j#k#l#m#      n#o#p#q#r#    ",
"      s#t#u#v#w#x#y#z#A#B#_#C#    D#E#F#G#H#      I#J#K#L#M#    ",
"      N#O#P#Q#R#S#  T#U#V#W#X#    Y#Z#`# $.$      +$@$#$$$%$    ",
"        &$*$=$-$;$  >$,$'$)$!$    ~${$]$^$/$      ($_$:$<$[$    ",
"        }$|$1$2$3$  4$5$6$7$8$    9$0$a$b$c$      d$e$f$g$      ",
"            h$                                                  ",
"                                                                "};
