/* XPM */
static char * flcolamens_xpm[] = {
"32 32 303 2",
"  	c None",
". 	c #0D2C78",
"+ 	c #0E2D7C",
"@ 	c #234089",
"# 	c #385295",
"$ 	c #0E2D7A",
"% 	c #0D2B75",
"& 	c #576DA5",
"* 	c #A1ACCD",
"= 	c #D8DCEB",
"- 	c #F1F2F8",
"; 	c #F7F8FB",
"> 	c #F8F9FC",
", 	c #F6F7FB",
"' 	c #EFF0F7",
") 	c #D6DAEA",
"! 	c #9FABCC",
"~ 	c #4C639F",
"{ 	c #405999",
"] 	c #C5CBE1",
"^ 	c #EAECF5",
"/ 	c #EEEFF7",
"( 	c #F3F4F9",
"_ 	c #FBFBFD",
": 	c #FCFDFE",
"< 	c #F9F9FC",
"[ 	c #F4F5FA",
"} 	c #F0F1F8",
"| 	c #EBEDF5",
"1 	c #E7E9F3",
"2 	c #C2C9E0",
"3 	c #405998",
"4 	c #0D2B74",
"5 	c #0E2D7B",
"6 	c #5369A3",
"7 	c #DEE1EF",
"8 	c #E5E7F2",
"9 	c #F2F3F9",
"0 	c #F7F7FB",
"a 	c #FCFCFD",
"b 	c #E2E5F1",
"c 	c #DBDEEE",
"d 	c #5268A3",
"e 	c #445C9B",
"f 	c #D0D4E8",
"g 	c #E0E2F0",
"h 	c #E4E6F2",
"i 	c #E8EAF4",
"j 	c #ECEEF6",
"k 	c #F5F6FA",
"l 	c #EEF0F7",
"m 	c #E6E8F3",
"n 	c #E1E4F1",
"o 	c #DDE0EE",
"p 	c #CDD1E7",
"q 	c #435B9B",
"r 	c #0B2463",
"s 	c #B2BAD9",
"t 	c #D2D6E9",
"u 	c #EDEFF6",
"v 	c #DBDFEE",
"w 	c #D1D5E9",
"x 	c #A4AED1",
"y 	c #416C17",
"z 	c #45711A",
"A 	c #3D662A",
"B 	c #3A5496",
"C 	c #C1C6E1",
"D 	c #CBD0E6",
"E 	c #DCDFEE",
"F 	c #E3E6F2",
"G 	c #EDEEF6",
"H 	c #DEE0EF",
"I 	c #DADDED",
"J 	c #C8CDE4",
"K 	c #BDC3DF",
"L 	c #2E4A8F",
"M 	c #336404",
"N 	c #3B6C0C",
"O 	c #5E8A33",
"P 	c #8DB367",
"Q 	c #B3D393",
"R 	c #B6D597",
"S 	c #9BB899",
"T 	c #3B5496",
"U 	c #C4CAE3",
"V 	c #C9CEE5",
"W 	c #E0E3F0",
"X 	c #E9EBF4",
"Y 	c #E6E9F3",
"Z 	c #E4E7F2",
"` 	c #DBDEED",
" .	c #CFD3E7",
"..	c #C5CAE3",
"+.	c #C0C6E1",
"@.	c #3A5396",
"#.	c #346703",
"$.	c #769E4F",
"%.	c #D0E5BA",
"&.	c #EDF9E1",
"*.	c #F0FAE7",
"=.	c #F4FBEC",
"-.	c #F6FCF1",
";.	c #F8FDF4",
">.	c #193883",
",.	c #CCD0E6",
"'.	c #D5D9EB",
").	c #DFE2F0",
"!.	c #E3E5F1",
"~.	c #E2E4F1",
"{.	c #DDE0EF",
"].	c #D9DCEC",
"^.	c #C3C8E2",
"/.	c #193781",
"(.	c #41760D",
"_.	c #B5D793",
":.	c #E6F7D5",
"<.	c #EAF8DC",
"[.	c #EEF9E3",
"}.	c #F2FBE9",
"|.	c #F6FCEF",
"1.	c #F9FDF5",
"2.	c #FCFEF9",
"3.	c #687CAC",
"4.	c #7889B8",
"5.	c #CFD3E8",
"6.	c #D3D7EA",
"7.	c #D8DBEC",
"8.	c #D4D8EA",
"9.	c #CACFE6",
"0.	c #7687B7",
"a.	c #0C2668",
"b.	c #3B6F08",
"c.	c #B8E28F",
"d.	c #E2F6CF",
"e.	c #E6F7D6",
"f.	c #EBF8DC",
"g.	c #F2FBEA",
"h.	c #F6FCF0",
"i.	c #FDFEFB",
"j.	c #E0E5ED",
"k.	c #29458B",
"l.	c #ADB6D5",
"m.	c #D6DAEB",
"n.	c #D7DAEB",
"o.	c #A9B3D3",
"p.	c #193881",
"q.	c #336402",
"r.	c #87C24C",
"s.	c #D0EFB0",
"t.	c #E2F5CE",
"u.	c #EDF9E2",
"v.	c #F1FBE8",
"w.	c #F5FCEE",
"x.	c #F8FDF3",
"y.	c #FAFEF8",
"z.	c #FBFEF8",
"A.	c #CDD6E0",
"B.	c #29468B",
"C.	c #8090BC",
"D.	c #7D8EBA",
"E.	c #1A3881",
"F.	c #42760F",
"G.	c #A7E26D",
"H.	c #C7EDA3",
"I.	c #E1F5CD",
"J.	c #E5F6D3",
"K.	c #E9F8DA",
"L.	c #ECF9E0",
"M.	c #EFFAE5",
"N.	c #F3FBEB",
"O.	c #F5FCEF",
"P.	c #F7FCF2",
"Q.	c #F7FCF1",
"R.	c #D8E2DF",
"S.	c #476198",
"T.	c #435B9A",
"U.	c #A2ADCE",
"V.	c #919FC5",
"W.	c #415A99",
"X.	c #0D2970",
"Y.	c #51861D",
"Z.	c #ACE476",
"`.	c #B5E683",
" +	c #D8F2BE",
".+	c #E3F6D0",
"++	c #F0FAE6",
"@+	c #EFFAE4",
"#+	c #B4C6C7",
"$+	c #526D9A",
"%+	c #465E9C",
"&+	c #DCE1ED",
"*+	c #8394BD",
"=+	c #8292BC",
"-+	c #7F90BB",
";+	c #455E9B",
">+	c #1C3A82",
",+	c #0C2667",
"'+	c #4B7E18",
")+	c #B1E57D",
"!+	c #B7E787",
"~+	c #BEE993",
"{+	c #D2F0B3",
"]+	c #E7F7D8",
"^+	c #F0FAE5",
"/+	c #EEF9E2",
"(+	c #ECF9DF",
"_+	c #8AA4AA",
":+	c #8594BE",
"<+	c #9BA7CA",
"[+	c #2E4B86",
"}+	c #142B66",
"|+	c #132962",
"1+	c #0D1F4D",
"2+	c #97C866",
"3+	c #BBE98F",
"4+	c #C1EA98",
"5+	c #C6ECA0",
"6+	c #CBEEA8",
"7+	c #D6F1BB",
"8+	c #DEF4C8",
"9+	c #E7F7D7",
"0+	c #E0F5CB",
"a+	c #D9F2C0",
"b+	c #CDEEAB",
"c+	c #4D6698",
"d+	c #AAB4D2",
"e+	c #5E71A9",
"f+	c #48687A",
"g+	c #305D0D",
"h+	c #538424",
"i+	c #B8E38E",
"j+	c #C6EC9F",
"k+	c #D0EFB1",
"l+	c #D4F1B8",
"m+	c #DBF3C3",
"n+	c #DDF4C6",
"o+	c #DEF4C7",
"p+	c #DCF3C5",
"q+	c #DAF3C1",
"r+	c #D6F2BC",
"s+	c #B4CFB1",
"t+	c #5569A4",
"u+	c #6279A4",
"v+	c #9EC295",
"w+	c #59872B",
"x+	c #1F3C02",
"y+	c #37610C",
"z+	c #638E38",
"A+	c #C2E69F",
"B+	c #CFEFB0",
"C+	c #D5F1B9",
"D+	c #E3F6D1",
"E+	c #E4F6D3",
"F+	c #E4F6D2",
"G+	c #E2F5CF",
"H+	c #DCF3C4",
"I+	c #B0C6B9",
"J+	c #9EB5B2",
"K+	c #C6E8A4",
"L+	c #6F9946",
"M+	c #365E10",
"N+	c #3D611A",
"O+	c #618A3A",
"P+	c #ABCC8B",
"Q+	c #E9F8DB",
"R+	c #EBF8DD",
"S+	c #EAF8DD",
"T+	c #E8F7D9",
"U+	c #E5F6D4",
"V+	c #E1F5CC",
"W+	c #AFCE91",
"X+	c #6D9447",
"Y+	c #3C5D1C",
"Z+	c #597A39",
"`+	c #80A25F",
" @	c #ABC591",
".@	c #CADEB6",
"+@	c #E6F4D8",
"@@	c #F1FAE7",
"#@	c #EAF8DB",
"$@	c #BAD1A3",
"%@	c #84A564",
"&@	c #587639",
"*@	c #566D3E",
"=@	c #708B57",
"-@	c #7F9965",
";@	c #8BA571",
">@	c #93AE78",
",@	c #B4C9A0",
"'@	c #ECF6E2",
")@	c #9BB77F",
"!@	c #465C2F",
"~@	c #657E4D",
"{@	c #7E9E5F",
"]@	c #B6CCA1",
"^@	c #C1D6AC",
"/@	c #50732D",
"(@	c #577C33",
"_@	c #799D56",
":@	c #4A771E",
"<@	c #386709",
"[@	c #2A5202",
"                                                                ",
"                                                                ",
"                                                                ",
"                                                                ",
"                                  . + @ # # # @ $ %             ",
"                              + & * = - ; > , ' ) ! ~ $         ",
"                          $ { ] ^ / ( ; _ : < [ } | 1 2 3 4     ",
"                        5 6 7 8 ^ / 9 0 _ a > [ } | 1 b c d %   ",
"                      . e f g h i j - [ 0 ; k 9 l ^ m n o p q r ",
"                      + s t 7 b m ^ u - 9 ( - ' | i h g v w x . ",
"                y z A B C D E g F 1 ^ j u / G | i 8 n H I J K L ",
"        M N O P Q R S T U V t o W F m i X X i Y Z n 7 `  ...+.@.",
"      #.$.%.&.*.=.-.;.>.J ,.f '.c ).n !.h h F ~.W {.].w ,.J ^./.",
"    (._.:.<.[.}.|.1.2.3.4.5.6.7.E ).~.h 8 h h ~.).E 7.8.5.9.0.a.",
"  b.c.d.e.f.[.g.h.1.i.j.k.l.m.` ).F 1 X | | X 1 F ).v n.t o.p.  ",
"q.r.s.t.:.<.u.v.w.x.y.z.A.B.C.7 b 1 | l } } l | 1 !.7 ].D.E.    ",
"F.G.H.I.J.K.L.M.N.O.P.x.Q.R.S.T.U.^ ' 9 k k 9 ' ^ 8 V.W.X.      ",
"Y.Z.`. +.+e.<.&.++}.=.=.N.v.@+#+$+%+- , &+*+=+-+;+>+,+          ",
"'+)+!+~+{+d.]+<.L.[.M.^+@+/+(+]+_+:+- <+[+}+|+1+                ",
"q.2+3+4+5+6+7+8+J.e.9+9+9+0+a+b+c+d+e+f+g+                      ",
"  h+i+j+6+k+l+ +m+n+8+o+p+q+r+s+t+u+v+w+x+                      ",
"  y+z+A+B+C+a+o+I.D+E+F+G+0+H+I+J+K+L+M+                        ",
"    N+O+P+a+8+.+9+Q+R+S+T+U+V+H+W+X+Y+                          ",
"        Z+`+ @.@+@M.@@++/+#@$@%@&@                              ",
"            *@=@-@;@>@,@'@u.)@!@                                ",
"                      ~@{@]@^@/@                                ",
"                          (@_@:@                                ",
"                              <@[@                              ",
"                                                                ",
"                                                                ",
"                                                                ",
"                                                                "};
