/* XPM */
static char * agt_add_to_autorun_xpm[] = {
"32 32 515 2",
"  	c None",
". 	c #1F4A9D",
"+ 	c #566BA2",
"@ 	c #B8D3EC",
"# 	c #2B4689",
"$ 	c #728DC2",
"% 	c #D2E4F8",
"& 	c #DEEAF5",
"* 	c #A8C8EA",
"= 	c #1D347D",
"- 	c #579D35",
"; 	c #459F4A",
"> 	c #449E47",
", 	c #449E48",
"' 	c #479F49",
") 	c #48A34A",
"! 	c #468C20",
"~ 	c #345396",
"{ 	c #829ED1",
"] 	c #B7CEE9",
"^ 	c #AFC7E2",
"/ 	c #B0C8E4",
"( 	c #C4D7ED",
"_ 	c #7190C6",
": 	c #90CF7F",
"< 	c #B0DBA8",
"[ 	c #ADD9A2",
"} 	c #B0DAA4",
"| 	c #B1DBA5",
"1 	c #B7DFAD",
"2 	c #AFDEA1",
"3 	c #37891F",
"4 	c #466CAF",
"5 	c #92B7E0",
"6 	c #99B9DD",
"7 	c #93B4D9",
"8 	c #97B7DB",
"9 	c #9BB9DD",
"0 	c #9FBBDD",
"a 	c #B2CDEC",
"b 	c #5377B5",
"c 	c #386D1E",
"d 	c #9BD788",
"e 	c #9FD18D",
"f 	c #A0D28C",
"g 	c #A2D38E",
"h 	c #A3D48F",
"i 	c #AFDA9A",
"j 	c #8ACA70",
"k 	c #1D7303",
"l 	c #1C5398",
"m 	c #5179BA",
"n 	c #7FAAD9",
"o 	c #7BA4D3",
"p 	c #7EA8D5",
"q 	c #83ACD7",
"r 	c #87AED8",
"s 	c #8AB0D9",
"t 	c #8CB1D9",
"u 	c #91B3D9",
"v 	c #9CBEE3",
"w 	c #4067AE",
"x 	c #559538",
"y 	c #9AD683",
"z 	c #96CE7E",
"A 	c #98D07E",
"B 	c #9BD180",
"C 	c #9DD281",
"D 	c #A8D98B",
"E 	c #69BB44",
"F 	c #186700",
"G 	c #2857A8",
"H 	c #517DC0",
"I 	c #689BD2",
"J 	c #6699D0",
"K 	c #6C9ED3",
"L 	c #71A3D5",
"M 	c #76A5D7",
"N 	c #79A8D7",
"O 	c #7CA9D8",
"P 	c #7DA9D8",
"Q 	c #83ACD8",
"R 	c #88AFD7",
"S 	c #5690D0",
"T 	c #013E87",
"U 	c #6FB84D",
"V 	c #93D175",
"W 	c #90CC70",
"X 	c #93CE71",
"Y 	c #96D072",
"Z 	c #98D274",
"` 	c #9ED578",
" .	c #50AD1B",
"..	c #1A6126",
"+.	c #2558B0",
"@.	c #4589D0",
"#.	c #498CCE",
"$.	c #4C8CCE",
"%.	c #5B96D1",
"&.	c #629CD5",
"*.	c #67A0D7",
"=.	c #6BA3D9",
"-.	c #6FA5D9",
";.	c #73A6D9",
">.	c #72A5D7",
",.	c #669FD6",
"'.	c #3C83C9",
").	c #1264B9",
"!.	c #0C63C4",
"~.	c #7FCC56",
"{.	c #8ACB64",
"].	c #8ACB62",
"^.	c #8ECE63",
"/.	c #91CF64",
"(.	c #96D168",
"_.	c #90D25B",
":.	c #43A301",
"<.	c #154538",
"[.	c #1055C6",
"}.	c #145EC1",
"|.	c #145EBF",
"1.	c #317BC8",
"2.	c #569AD7",
"3.	c #599CDA",
"4.	c #5EA0DB",
"5.	c #61A1DB",
"6.	c #5D9FDA",
"7.	c #5399D7",
"8.	c #3F8CCF",
"9.	c #1F6DC2",
"0.	c #115DBF",
"a.	c #1461C1",
"b.	c #1365CD",
"c.	c #062C61",
"d.	c #417D12",
"e.	c #87D253",
"f.	c #85C955",
"g.	c #85C954",
"h.	c #89CD54",
"i.	c #8DCF55",
"j.	c #94D15E",
"k.	c #82D03B",
"l.	c #3B9400",
"m.	c #002D84",
"n.	c #003180",
"o.	c #023687",
"p.	c #3482CD",
"q.	c #4A9ADD",
"r.	c #4A9BDE",
"s.	c #4799DD",
"t.	c #4194DB",
"u.	c #3A8FD8",
"v.	c #358BD7",
"w.	c #0C50A8",
"x.	c #003188",
"y.	c #00378D",
"z.	c #003B95",
"A.	c #46970F",
"B.	c #6CC036",
"C.	c #78C536",
"D.	c #80C93F",
"E.	c #84CB42",
"F.	c #88CD42",
"G.	c #8ED145",
"H.	c #79D220",
"I.	c #2F7703",
"J.	c #469DE6",
"K.	c #4AA1E6",
"L.	c #4DA3E5",
"M.	c #4EA4E7",
"N.	c #4DA4E7",
"O.	c #4CA1E5",
"P.	c #4BA1E5",
"Q.	c #3C92E2",
"R.	c #062759",
"S.	c #3569AC",
"T.	c #456AB2",
"U.	c #4267B1",
"V.	c #456CA9",
"W.	c #588E95",
"X.	c #548A9A",
"Y.	c #4A8F73",
"Z.	c #91D74E",
"`.	c #A5DF69",
" +	c #A0DD63",
".+	c #93DA45",
"++	c #6FCF1A",
"@+	c #1D4E02",
"#+	c #30648C",
"$+	c #57B3F9",
"%+	c #58AFEE",
"&+	c #5CB3F2",
"*+	c #5DB4F3",
"=+	c #5DB3F1",
"-+	c #58B0F1",
";+	c #3485D4",
">+	c #93B2DD",
",+	c #ACBFDD",
"'+	c #A8BDDB",
")+	c #ABBFE1",
"!+	c #AABCE7",
"~+	c #A4B3EF",
"{+	c #36739A",
"]+	c #55BF0E",
"^+	c #68D008",
"/+	c #63CB09",
"(+	c #5EC706",
"_+	c #51B704",
":+	c #4A91C7",
"<+	c #64BFFF",
"[+	c #66BEF9",
"}+	c #6BC3FD",
"|+	c #69C1FB",
"1+	c #63BBF8",
"2+	c #60BCFD",
"3+	c #2466AD",
"4+	c #315B92",
"5+	c #99BDE9",
"6+	c #96B5DF",
"7+	c #97B6DF",
"8+	c #98B7DF",
"9+	c #A0BCE1",
"0+	c #82A3E2",
"a+	c #236887",
"b+	c #66D608",
"c+	c #70E100",
"d+	c #6EDC00",
"e+	c #71E400",
"f+	c #49A205",
"g+	c #61B7F1",
"h+	c #70C7FF",
"i+	c #7BCDFF",
"j+	c #84D1FF",
"k+	c #83D1FF",
"l+	c #7BCCFF",
"m+	c #6EC5FF",
"n+	c #62BEFF",
"o+	c #14427A",
"p+	c #5689C8",
"q+	c #97C0F3",
"r+	c #8FB6E9",
"s+	c #91B8EA",
"t+	c #94BAED",
"u+	c #9CC1F0",
"v+	c #6A9DEA",
"w+	c #0C457D",
"x+	c #235305",
"y+	c #265401",
"z+	c #245202",
"A+	c #275903",
"B+	c #77D2FF",
"C+	c #88D3FF",
"D+	c #9ADCFF",
"E+	c #A2E1FF",
"F+	c #9EDEFF",
"G+	c #90D7FF",
"H+	c #7ED1FF",
"I+	c #5BB2F6",
"J+	c #75B3F5",
"K+	c #92C4FD",
"L+	c #8DBFF9",
"M+	c #8EBFFA",
"N+	c #87BAE5",
"O+	c #8BBEE7",
"P+	c #5499D9",
"Q+	c #022B50",
"R+	c #4C89AB",
"S+	c #8CDFFF",
"T+	c #A0DFFF",
"U+	c #B7ECFF",
"V+	c #BFEFFF",
"W+	c #B2E9FF",
"X+	c #9BDDFF",
"Y+	c #86D7FF",
"Z+	c #4C99D7",
"`+	c #254369",
" @	c #97CEFE",
".@	c #9DCAFB",
"+@	c #9DC9FD",
"@@	c #74B594",
"#@	c #52A337",
"$@	c #5CA947",
"%@	c #57A543",
"&@	c #539D34",
"*@	c #5DA735",
"=@	c #64AE3B",
"-@	c #61B231",
";@	c #76BDDB",
">@	c #A6EDFF",
",@	c #BDF1FF",
"'@	c #DAFFFF",
")@	c #DEFFFF",
"!@	c #C3F4FF",
"~@	c #A6E5FF",
"{@	c #89DDFF",
"]@	c #3975A9",
"^@	c #1D3F6A",
"/@	c #5FA3F3",
"(@	c #5D9CE9",
"_@	c #5796E4",
":@	c #5CA848",
"<@	c #ADDE7B",
"[@	c #BCE396",
"}@	c #BDE593",
"|@	c #C3EA9A",
"1@	c #C5EBA0",
"2@	c #CEEEAA",
"3@	c #B5EB79",
"4@	c #285302",
"5@	c #5B9FD3",
"6@	c #6FB3E4",
"7@	c #7CB8E2",
"8@	c #89C0E5",
"9@	c #8CC3E6",
"0@	c #84C1E7",
"a@	c #7CBEE9",
"b@	c #71BDF1",
"c@	c #264E71",
"d@	c #1D426E",
"e@	c #5DAFFF",
"f@	c #5FADFF",
"g@	c #509FD0",
"h@	c #56A635",
"i@	c #B1DF87",
"j@	c #AFDD83",
"k@	c #B2DF84",
"l@	c #B5E286",
"m@	c #B7E486",
"n@	c #C0E891",
"o@	c #A1D95D",
"p@	c #013595",
"q@	c #1150AE",
"r@	c #1858AE",
"s@	c #2061B3",
"t@	c #2868B6",
"u@	c #3576B9",
"v@	c #4186C0",
"w@	c #4589C0",
"x@	c #213E5F",
"y@	c #243C67",
"z@	c #356B44",
"A@	c #62BF12",
"B@	c #8FD151",
"C@	c #A6DB6E",
"D@	c #ABDD71",
"E@	c #ADE070",
"F@	c #AFE270",
"G@	c #B9E77A",
"H@	c #94D442",
"I@	c #3C7A00",
"J@	c #247B15",
"K@	c #257E15",
"L@	c #278015",
"M@	c #2A730D",
"N@	c #285513",
"O@	c #2E621F",
"P@	c #2F6320",
"Q@	c #2E6420",
"R@	c #346A24",
"S@	c #234427",
"T@	c #236A09",
"U@	c #5DC400",
"V@	c #5FBE00",
"W@	c #7BCB20",
"X@	c #96D745",
"Y@	c #A6DE5A",
"Z@	c #ADE25F",
"`@	c #B1E463",
" #	c #A9E151",
".#	c #9EE03A",
"+#	c #9DDD3D",
"@#	c #9DDD3E",
"##	c #9CDC3C",
"$#	c #9FE234",
"%#	c #99DE32",
"&#	c #95DA34",
"*#	c #94D93A",
"=#	c #87DA24",
"-#	c #3C7C00",
";#	c #388D0C",
">#	c #65C700",
",#	c #68C400",
"'#	c #6DC800",
")#	c #76CD01",
"!#	c #86D512",
"~#	c #97DC2D",
"{#	c #A5E147",
"]#	c #AFE55B",
"^#	c #B7E86A",
"/#	c #B9E96E",
"(#	c #BBE970",
"_#	c #BAE970",
":#	c #B9E86E",
"<#	c #B7E769",
"[#	c #B4E664",
"}#	c #B0E464",
"|#	c #AFE266",
"1#	c #88D630",
"2#	c #2B7103",
"3#	c #08511A",
"4#	c #6DB83B",
"5#	c #69C800",
"6#	c #70C900",
"7#	c #78CE00",
"8#	c #7ED200",
"9#	c #84D605",
"0#	c #8BDA13",
"a#	c #93DC23",
"b#	c #9CE032",
"c#	c #A2E240",
"d#	c #A7E449",
"e#	c #A9E44E",
"f#	c #A9E44C",
"g#	c #A6E247",
"h#	c #A1DF3D",
"i#	c #98DC2D",
"j#	c #8DD818",
"k#	c #84D609",
"l#	c #62C100",
"m#	c #1A5D08",
"n#	c #1C5D0E",
"o#	c #6ACB01",
"p#	c #70CA00",
"q#	c #77CF00",
"r#	c #80D400",
"s#	c #88D907",
"t#	c #91DC1A",
"u#	c #99E029",
"v#	c #A0E236",
"w#	c #A4E43F",
"x#	c #A8E545",
"y#	c #AAE748",
"z#	c #A8E643",
"A#	c #A4E43B",
"B#	c #9EE12F",
"C#	c #97DF21",
"D#	c #8FDD10",
"E#	c #8FE002",
"F#	c #54B501",
"G#	c #0E3B08",
"H#	c #29780B",
"I#	c #6ACF03",
"J#	c #72CB0D",
"K#	c #7DD118",
"L#	c #89D725",
"M#	c #95DC39",
"N#	c #A2E14F",
"O#	c #ADE562",
"P#	c #B9EA75",
"Q#	c #C4EE86",
"R#	c #C8EF8E",
"S#	c #C6F08A",
"T#	c #BEEC7F",
"U#	c #B5E971",
"V#	c #ADE561",
"W#	c #A2E250",
"X#	c #96DD3D",
"Y#	c #8CDA29",
"Z#	c #81D812",
"`#	c #389606",
" $	c #1E6804",
".$	c #2C9701",
"+$	c #379C06",
"@$	c #42A70C",
"#$	c #4FB211",
"$$	c #58BA15",
"%$	c #61C21A",
"&$	c #69C81E",
"*$	c #6ECD23",
"=$	c #72D027",
"-$	c #71CD29",
";$	c #69C626",
">$	c #5EBD20",
",$	c #53B21B",
"'$	c #47A717",
")$	c #3A9C12",
"!$	c #2E910D",
"~$	c #218309",
"{$	c #127905",
"]$	c #136306",
"^$	c #1D6504",
"/$	c #2D9C01",
"($	c #37A200",
"_$	c #42AD00",
":$	c #4CB700",
"<$	c #54C100",
"[$	c #5AC900",
"}$	c #5FCD00",
"|$	c #60CF00",
"1$	c #5DCD00",
"2$	c #59C800",
"3$	c #52C100",
"4$	c #4AB800",
"5$	c #42AE00",
"6$	c #37A300",
"7$	c #2D9700",
"8$	c #218A00",
"9$	c #157C00",
"0$	c #0C7702",
"a$	c #124A06",
"b$	c #123703",
"c$	c #133603",
"d$	c #153703",
"e$	c #163903",
"f$	c #173B03",
"g$	c #193C03",
"h$	c #1A3D03",
"i$	c #1A3E03",
"j$	c #1A3C03",
"k$	c #183B03",
"l$	c #173A03",
"m$	c #123603",
"n$	c #113303",
"o$	c #0F3203",
"p$	c #103203",
"                                                                ",
"                                                                ",
"                                                  .             ",
"                                                + @ #           ",
"                                              $ % & * =         ",
"                - ; > , , ' ) !           ~ { ] ^ / ( _         ",
"                : < [ } | 1 2 3         4 5 6 7 8 9 0 a b       ",
"              c d e f g h i j k     l m n o p q r s t u v w     ",
"              x y z A B C D E F   G H I J K L M N O P Q R S T   ",
"              U V W X Y Z `  ...+.@.#.$.%.&.*.=.-.;.>.,.'.).!.  ",
"              ~.{.].^./.(._.:.<.[.}.|.1.2.3.4.5.6.7.8.9.0.a.b.c.",
"            d.e.f.g.h.i.j.k.l.  m.n.o.p.q.q.r.s.t.u.v.w.x.y.z.  ",
"            A.B.C.D.E.F.G.H.I.        J.K.L.M.N.O.P.Q.R.        ",
"    S.T.U.V.W.X.Y.Z.`. +.+++@+      #+$+%+&+*+=+%+-+;+          ",
"    >+,+'+)+!+~+{+]+^+/+(+_+        :+<+[+}+}+|+1+2+3+          ",
"  4+5+6+7+8+9+0+a+b+c+d+e+f+        g+h+i+j+k+l+m+n+o+          ",
"  p+q+r+s+t+u+v+w+x+y+z+A+          B+C+D+E+F+G+H+I+            ",
"  J+K+L+M+N+O+P+Q+                R+S+T+U+V+W+X+Y+Z+            ",
"`+ @.@+@@@#@$@%@&@*@=@-@          ;@>@,@'@)@!@~@{@]@            ",
"^@/@(@_@:@<@[@}@|@1@2@3@4@        5@6@7@8@9@0@a@b@c@            ",
"d@e@f@g@h@i@j@k@l@m@n@o@          p@q@r@s@t@u@v@w@              ",
"  x@y@z@A@B@C@D@E@F@G@H@I@J@K@L@M@N@O@P@Q@R@S@                  ",
"      T@U@V@W@X@Y@Z@`@ #.#+#@###.#$#%#&#*#=#-#                  ",
"      ;#>#,#'#)#!#~#{#]#^#/#(#_#:#<#[#}#|#1#2#                  ",
"    3#4#5#6#7#8#9#0#a#b#c#d#e#f#g#h#i#j#k#l#m#                  ",
"    n#o#p#q#r#s#t#u#v#w#x#y#y#z#A#B#C#D#E#F#G#                  ",
"    H#I#J#K#L#M#N#O#P#Q#R#S#T#U#V#W#X#Y#Z#`#                    ",
"     $.$+$@$#$$$%$&$*$=$-$;$>$,$'$)$!$~${$]$                    ",
"    ^$/$($_$:$<$[$}$|$1$2$3$4$5$6$7$8$9$0$a$                    ",
"      b$c$d$e$f$g$h$i$h$j$k$l$e$d$m$n$o$p$                      ",
"                                                                ",
"                                                                "};
