/* XPM */
static char * fltestppal_xpm[] = {
"32 32 320 2",
"  	c None",
". 	c #59B2F4",
"+ 	c #5CB7F6",
"@ 	c #50BBF7",
"# 	c #2DCAFA",
"$ 	c #31C6F9",
"% 	c #54ACF0",
"& 	c #4FA6F0",
"* 	c #4EA3EF",
"= 	c #4B9FEB",
"- 	c #5BB5F6",
"; 	c #1CA8FC",
"> 	c #00E1FF",
", 	c #2FC3F8",
"' 	c #50A7EE",
") 	c #4FA5EF",
"! 	c #4DA3EF",
"~ 	c #0ED5FC",
"{ 	c #1CC8F8",
"] 	c #3FA5EE",
"^ 	c #5FBAF8",
"/ 	c #5DB7F6",
"( 	c #59B2F5",
"_ 	c #168EFC",
": 	c #00DAFF",
"< 	c #05DDFE",
"[ 	c #14D2FB",
"} 	c #1DC9F9",
"| 	c #23BDF5",
"1 	c #3E8BD7",
"2 	c #59BDF8",
"3 	c #12D7FE",
"4 	c #17D3FD",
"5 	c #43BDF7",
"6 	c #47B9F6",
"7 	c #05DBFE",
"8 	c #00DEFF",
"9 	c #02D7FD",
"0 	c #0AC3F6",
"a 	c #10B7F2",
"b 	c #0EBFF5",
"c 	c #0CC6F7",
"d 	c #09D5FC",
"e 	c #32A7EF",
"f 	c #3E8DE1",
"g 	c #3C8CE6",
"h 	c #3A8AE5",
"i 	c #29B7FC",
"j 	c #02D3FD",
"k 	c #1696E8",
"l 	c #2670DA",
"m 	c #2A72D8",
"n 	c #2B72D5",
"o 	c #2D75D7",
"p 	c #307BDC",
"q 	c #3685E3",
"r 	c #28A3ED",
"s 	c #0FC7F9",
"t 	c #1BB9F5",
"u 	c #3992E8",
"v 	c #25A8EF",
"w 	c #2E97E9",
"x 	c #347DD5",
"y 	c #1781FD",
"z 	c #0096FF",
"A 	c #00CFFF",
"B 	c #00D5FF",
"C 	c #04C8FA",
"D 	c #2173DC",
"E 	c #2A74D7",
"F 	c #2D78D1",
"G 	c #2E78D1",
"H 	c #2E79D2",
"I 	c #3481D9",
"J 	c #3E8FE5",
"K 	c #32A6EF",
"L 	c #04D2FE",
"M 	c #03D0FD",
"N 	c #2E8DE6",
"O 	c #2E73C8",
"P 	c #1780FD",
"Q 	c #006FFF",
"R 	c #00B8FF",
"S 	c #00D1FF",
"T 	c #1B86E3",
"U 	c #2D7CD9",
"V 	c #3488D7",
"W 	c #3F93E3",
"X 	c #45A1EE",
"Y 	c #0EC8FC",
"Z 	c #07C7FB",
"` 	c #3085E3",
" .	c #59B3F5",
"..	c #47A4F6",
"+.	c #0573FE",
"@.	c #00CCFF",
"#.	c #05C1FA",
"$.	c #2773DB",
"%.	c #3A98DE",
"&.	c #3793D7",
"*.	c #3181BF",
"=.	c #2F7CB8",
"-.	c #368FD3",
";.	c #419DE4",
">.	c #4BA9F1",
",.	c #10C6FC",
"'.	c #288CE6",
").	c #2563B2",
"!.	c #57B0F4",
"~.	c #55AEF3",
"{.	c #34B0F7",
"].	c #00C8FF",
"^.	c #0AB2F6",
"/.	c #2F80DE",
"(.	c #3183B5",
"_.	c #3794CB",
":.	c #40A7E5",
"<.	c #48AAEB",
"[.	c #46B3F5",
"}.	c #09B9F9",
"|.	c #2A7EE0",
"1.	c #42B5F7",
"2.	c #00C4FF",
"3.	c #0BB0F7",
"4.	c #2B74D1",
"5.	c #44B5E8",
"6.	c #46B8EB",
"7.	c #55B5F3",
"8.	c #2EBDFB",
"9.	c #10A6F2",
"0.	c #2283E3",
"a.	c #2871DB",
"b.	c #266EDA",
"c.	c #30A7F8",
"d.	c #00BFFF",
"e.	c #09B1F9",
"f.	c #2E76D5",
"g.	c #4AC5EE",
"h.	c #4CC8F2",
"i.	c #4FC5F3",
"j.	c #53BCF9",
"k.	c #02B9FD",
"l.	c #2271DC",
"m.	c #55ADF3",
"n.	c #2A92F9",
"o.	c #00BBFF",
"p.	c #2D88E5",
"q.	c #52D7F8",
"r.	c #60C4FA",
"s.	c #13BCFE",
"t.	c #1192EC",
"u.	c #1D5DC1",
"v.	c #53ABF2",
"w.	c #298DF8",
"x.	c #0082FF",
"y.	c #0094FF",
"z.	c #00A9FF",
"A.	c #00B6FF",
"B.	c #1B9DF1",
"C.	c #347ED2",
"D.	c #54DEF6",
"E.	c #57E5FE",
"F.	c #61D1FD",
"G.	c #1ABAFE",
"H.	c #00A0FF",
"I.	c #1278E9",
"J.	c #1C5DC5",
"K.	c #2890F8",
"L.	c #0078FF",
"M.	c #0087FF",
"N.	c #00B2FF",
"O.	c #04AFFD",
"P.	c #3592E9",
"Q.	c #58E7FF",
"R.	c #64D2FE",
"S.	c #1BB8FF",
"T.	c #0C8AF0",
"U.	c #1D62D0",
"V.	c #449FF1",
"W.	c #2691F6",
"X.	c #1289FA",
"Y.	c #0D87FB",
"Z.	c #0083FF",
"`.	c #00A3FF",
" +	c #00ADFF",
".+	c #0CA7FB",
"++	c #3F97EB",
"@+	c #58E6FE",
"#+	c #6ACFFF",
"$+	c #14B3FF",
"%+	c #1676E0",
"&+	c #164AA0",
"*+	c #499BE4",
"=+	c #3F85C6",
"-+	c #428FD9",
";+	c #4299EC",
">+	c #048FFE",
",+	c #0098FF",
"'+	c #0DA5FB",
")+	c #459EEE",
"!+	c #61DBFF",
"~+	c #52C3FF",
"{+	c #0B8EEF",
"]+	c #1964D7",
"^+	c #3F8CD9",
"/+	c #2197F4",
"(+	c #00A4FF",
"_+	c #09A4FD",
":+	c #3CA5F4",
"<+	c #51A7EC",
"[+	c #64D7FF",
"}+	c #66C9FF",
"|+	c #14ABFF",
"1+	c #0597F7",
"2+	c #1268DB",
"3+	c #4294E9",
"4+	c #2498F2",
"5+	c #20A4FA",
"6+	c #48AEF7",
"7+	c #5CB6F5",
"8+	c #60BBF8",
"9+	c #63C0FA",
"0+	c #66C4FB",
"a+	c #6AC8FD",
"b+	c #6CCBFE",
"c+	c #52C1FF",
"d+	c #14A8FF",
"e+	c #0A7BE8",
"f+	c #1048AF",
"g+	c #3498EC",
"h+	c #009BFF",
"i+	c #0C9FFE",
"j+	c #1FA6FD",
"k+	c #32AEFD",
"l+	c #34B0FE",
"m+	c #28ACFF",
"n+	c #14A4FF",
"o+	c #00A2FF",
"p+	c #009FFF",
"q+	c #0D6BDF",
"r+	c #4091E8",
"s+	c #23A3F2",
"t+	c #009EFF",
"u+	c #0097FF",
"v+	c #00B0FF",
"w+	c #00BAFF",
"x+	c #03A6F6",
"y+	c #1057D3",
"z+	c #3E8FE7",
"A+	c #17B0F6",
"B+	c #00C5FF",
"C+	c #009CFF",
"D+	c #00B7FF",
"E+	c #00B1FF",
"F+	c #0095FF",
"G+	c #00A7FF",
"H+	c #02B7F9",
"I+	c #105AD3",
"J+	c #0C3D9B",
"K+	c #378FE7",
"L+	c #0BC2FA",
"M+	c #00D0FF",
"N+	c #19A6F0",
"O+	c #18A5F0",
"P+	c #03CAFD",
"Q+	c #097AEB",
"R+	c #115DD4",
"S+	c #0E62D6",
"T+	c #338BE5",
"U+	c #10BEF6",
"V+	c #2990E7",
"W+	c #2E76D2",
"X+	c #2B72CD",
"Y+	c #2885E2",
"Z+	c #0BC1F7",
"`+	c #00DBFF",
" @	c #00BDFF",
".@	c #0191FC",
"+@	c #0D46B3",
"@@	c #3380E1",
"#@	c #2A6ABB",
"$@	c #2871D6",
"%@	c #14A9ED",
"&@	c #009AFF",
"*@	c #00A8FF",
"=@	c #0B61DB",
"-@	c #0A3FA4",
";@	c #1C8CE4",
">@	c #107DE7",
",@	c #1480DF",
"'@	c #127EDE",
")@	c #01D9FC",
"!@	c #00D8FF",
"~@	c #078FE7",
"{@	c #0C4AC4",
"]@	c #1B8AE3",
"^@	c #00DCFF",
"/@	c #05B6F7",
"(@	c #1A60D5",
"_@	c #1551BD",
":@	c #0D8CE3",
"<@	c #05AAED",
"[@	c #0D4DCC",
"}@	c #1A88E2",
"|@	c #02D9FC",
"1@	c #1578DD",
"2@	c #144BA9",
"3@	c #1355CF",
"4@	c #07A3EA",
"5@	c #0B74DB",
"6@	c #0D4CC8",
"7@	c #2067D7",
"8@	c #187CDE",
"9@	c #1292E5",
"0@	c #1288E2",
"a@	c #1756C3",
"b@	c #0E4EC6",
"c@	c #0A3B9A",
"d@	c #1448A0",
"e@	c #154FB1",
"                    .                                           ",
"              + @ # $ %     & * =                               ",
"              - ; > > , ' ) ! ~ { ]                             ",
"        ^ /   ( _ : > > < [ } > > | 1                           ",
"      2 3 4 5 6 7 8 8 9 0 a b c 8 d e f   g h                   ",
"    ^ i : : : : : j k l m n o p q r s t u v w x                 ",
"    + y z A B B C D E F G G G G H I J K L B M N O               ",
"    - P Q R S S T U V V V V V V V V V W X Y Z `                 ",
"     ...+.@.@.#.$.%.&.*.=.*.-.%.%.%.%.%.;.>.,.'.).              ",
"   .!.~.{.].].^./.(.            _.:.:.:.:.<.[.}.|.              ",
"  1.2.2.2.2.2.3.4.                  5.6.6.6.7.8.9.0.a.b.        ",
"  c.d.d.d.d.d.e.f.                    g.h.h.i.j.d.d.k.l.        ",
"m.n.o.o.o.o.o.o.p.                      q.q.q.r.s.o.o.t.u.      ",
"v.w.x.x.y.z.A.A.B.C.                    D.E.E.F.G.A.H.I.J.      ",
"  K.L.L.L.M.N.N.O.P.                      Q.Q.R.S.N.T.U.        ",
"  V.W.X.Y.Z.`. + +.+++                    @+Q.#+$+ +%+&+        ",
"  *+=+-+;+>+,+z.z.z.'+)+                  Q.!+~+z.z.{+]+        ",
"        ^+/+`.(+(+(+(+_+:+<+              [+}+|+(+(+(+1+2+      ",
"        3+4+H.H.H.H.H.H.H.5+6+7+8+9+0+a+b+c+d+H.H.H.H.H.e+f+    ",
"        g+H.h+h+h+h+h+h+h+h+h+i+j+k+l+m+n+h+h+h+h+o+z.p+q+      ",
"      r+s+R t+u+u+`.v+t+u+u+u+u+u+u+u+u+u+u+u+u+t+R w+x+y+      ",
"      z+A+B+d.C+D+B+B+B+E+,+F+F+F+F+F+F+F+F+F+F+G+B+H+I+J+      ",
"        K+L+M+M+N+O+P+M+M+N.F+F+F+F+F+F+F+F+F+F+Q+R+S+J+        ",
"          T+U+V+W+X+Y+Z+`+R F+F+F+F+`+`+`+ @F+F+.@y++@          ",
"            @@#@      $@%@o.F+F+F+&@> > > > *@F+F+=@-@          ",
"                        ;@B+&@F+F+>@,@'@)@> !@ +~@{@            ",
"                        ]@> > ^@/@(@  _@:@> > <@[@              ",
"                        }@> > |@1@2@    3@4@5@6@                ",
"                        7@8@9@0@a@        b@c@                  ",
"                            d@e@                                ",
"                                                                ",
"                                                                "};
