/* XPM */
static char * flejemplos_xpm[] = {
"22 22 274 2",
"  	c None",
". 	c #E27C20",
"+ 	c #E0791E",
"@ 	c #DE7D28",
"# 	c #D3C5B5",
"$ 	c #CCBDA8",
"% 	c #DE8332",
"& 	c #E07A1F",
"* 	c #F3B06D",
"= 	c #FBC992",
"- 	c #FCCC95",
"; 	c #FDCD98",
"> 	c #FDCF9B",
", 	c #FDD19E",
"' 	c #FDD2A1",
") 	c #FED4A4",
"! 	c #FED4A5",
"~ 	c #E0CDB2",
"{ 	c #F8F8F8",
"] 	c #FCFCFC",
"^ 	c #DACFBE",
"/ 	c #FDD8AE",
"( 	c #FCCE9A",
"_ 	c #F3B06C",
": 	c #DE761B",
"< 	c #FAC58D",
"[ 	c #F8A344",
"} 	c #FAA547",
"| 	c #FBA84C",
"1 	c #FBAB51",
"2 	c #FBAE56",
"3 	c #FCB05A",
"4 	c #FCB35E",
"5 	c #FCBF78",
"6 	c #FDCF99",
"7 	c #F4DBBE",
"8 	c #EFEFEF",
"9 	c #FFFFFF",
"0 	c #D7D7D1",
"a 	c #FCCB95",
"b 	c #FBBC75",
"c 	c #F8A548",
"d 	c #DD751A",
"e 	c #F9C388",
"f 	c #F7A142",
"g 	c #F9A445",
"h 	c #FAA648",
"i 	c #FBA94D",
"j 	c #FCC382",
"k 	c #FDD2A2",
"l 	c #FDCD97",
"m 	c #FEDBB5",
"n 	c #FEE6CA",
"o 	c #E9E9E5",
"p 	c #E9E9E8",
"q 	c #E9CFAF",
"r 	c #FBC588",
"s 	c #F8AC59",
"t 	c #DC7318",
"u 	c #F8C083",
"v 	c #F69F40",
"w 	c #F8A143",
"x 	c #FDD6A9",
"y 	c #FFFCF9",
"z 	c #FEE7CE",
"A 	c #FEF5EA",
"B 	c #FEE8D0",
"C 	c #ECE7DF",
"D 	c #FDFDFD",
"E 	c #D8D0C2",
"F 	c #FBC891",
"G 	c #F8B165",
"H 	c #DB7216",
"I 	c #F7BC7F",
"J 	c #F59C3E",
"K 	c #F8A142",
"L 	c #F9A344",
"M 	c #FCC487",
"N 	c #FEF4E8",
"O 	c #FEECD7",
"P 	c #FDE5C8",
"Q 	c #F8ECDD",
"R 	c #ECEDEC",
"S 	c #D8D8D5",
"T 	c #F7C58E",
"U 	c #F7AC5E",
"V 	c #DA7015",
"W 	c #F6B979",
"X 	c #F3993B",
"Y 	c #F49C3E",
"Z 	c #F69E40",
"` 	c #F7A448",
" .	c #FCD3A6",
"..	c #FEF1E2",
"+.	c #FEF0E0",
"@.	c #FDDDBA",
"#.	c #FDE7CE",
"$.	c #E9E8E3",
"%.	c #E7E8E7",
"&.	c #D5B086",
"*.	c #F4A049",
"=.	c #D96F13",
"-.	c #F5B574",
";.	c #F19639",
">.	c #F2993B",
",.	c #F49C3D",
"'.	c #F7B269",
").	c #F8B56D",
"!.	c #F9C78F",
"~.	c #FFFDFA",
"{.	c #FCD9B3",
"].	c #FCE1C2",
"^.	c #FCD9B1",
"/.	c #FBD3A8",
"(.	c #E3CDB0",
"_.	c #C2C4C3",
":.	c #8C8E8B",
"<.	c #927F67",
"[.	c #D86D12",
"}.	c #F3B374",
"|.	c #EF953B",
"1.	c #F4AF69",
"2.	c #FBDDBF",
"3.	c #FDEEDE",
"4.	c #F6B168",
"5.	c #F7B875",
"6.	c #FAD1A6",
"7.	c #F8BB7A",
"8.	c #F8BA78",
"9.	c #F5A854",
"0.	c #F5A856",
"a.	c #EBAC68",
"b.	c #696C6A",
"c.	c #82847F",
"d.	c #424543",
"e.	c #DC8934",
"f.	c #F3B16F",
"g.	c #E6A167",
"h.	c #FBE6D2",
"i.	c #F2AD68",
"j.	c #F2AC65",
"k.	c #FFFEFD",
"l.	c #F9D4AE",
"m.	c #F5B069",
"n.	c #F6B46F",
"o.	c #F4AB5F",
"p.	c #F29A3E",
"q.	c #F2983A",
"r.	c #F29739",
"s.	c #745E45",
"t.	c #575B59",
"u.	c #3B3E3C",
"v.	c #925F2B",
"w.	c #F1AD6A",
"x.	c #D76C10",
"y.	c #ECB88C",
"z.	c #FEF9F4",
"A.	c #EEA051",
"B.	c #F1AF6D",
"C.	c #F5C390",
"D.	c #FADCBF",
"E.	c #F2A85E",
"F.	c #F2A85D",
"G.	c #F19C45",
"H.	c #F09437",
"I.	c #F09436",
"J.	c #EF9336",
"K.	c #EF9235",
"L.	c #9E662C",
"M.	c #252A2C",
"N.	c #5A5C58",
"O.	c #473623",
"P.	c #EFA963",
"Q.	c #D76A0F",
"R.	c #DA7926",
"S.	c #EEA764",
"T.	c #EA9440",
"U.	c #EC9744",
"V.	c #ED9A48",
"W.	c #EF9F52",
"X.	c #ED953F",
"Y.	c #ED8F32",
"Z.	c #ED9033",
"`.	c #EC8E31",
" +	c #E18730",
".+	c #242424",
"++	c #7F827D",
"@+	c #2A2E2D",
"#+	c #CF9054",
"$+	c #D6690D",
"%+	c #D5670C",
"&+	c #EB9F56",
"*+	c #E7862A",
"=+	c #E8872B",
"-+	c #E9892C",
";+	c #E98A2D",
">+	c #EA8B2E",
",+	c #EA8B2F",
"'+	c #EB8C2F",
")+	c #5F4224",
"!+	c #454948",
"~+	c #3F4240",
"{+	c #835F3B",
"]+	c #D4660A",
"^+	c #E99A51",
"/+	c #E58226",
"(+	c #E68428",
"_+	c #E68529",
":+	c #E8872A",
"<+	c #E8882B",
"[+	c #E8882C",
"}+	c #A66526",
"|+	c #232829",
"1+	c #6A6C68",
"2+	c #3A3228",
"3+	c #D36409",
"4+	c #E7944A",
"5+	c #E37E23",
"6+	c #E48024",
"7+	c #E48125",
"8+	c #E58327",
"9+	c #E68327",
"0+	c #DF7F25",
"a+	c #282622",
"b+	c #6F726F",
"c+	c #2E3131",
"d+	c #AD560E",
"e+	c #D26307",
"f+	c #E58F43",
"g+	c #E17B20",
"h+	c #E17C21",
"i+	c #E27D22",
"j+	c #E27E23",
"k+	c #E37F23",
"l+	c #E37F24",
"m+	c #694420",
"n+	c #363B3C",
"o+	c #434543",
"p+	c #6A3C15",
"q+	c #D16105",
"r+	c #E38A3C",
"s+	c #DE771C",
"t+	c #DF781D",
"u+	c #AF621E",
"v+	c #212627",
"w+	c #7C7E79",
"x+	c #2E2822",
"y+	c #D06004",
"z+	c #E18535",
"A+	c #DC751A",
"B+	c #DD761B",
"C+	c #DE771B",
"D+	c #312920",
"E+	c #5F6260",
"F+	c #323534",
"G+	c #CA5D02",
"H+	c #D9741F",
"I+	c #DE802F",
"J+	c #DF8130",
"K+	c #E08231",
"L+	c #E08332",
"M+	c #E18332",
"N+	c #764C27",
"O+	c #2B2F31",
"P+	c #4D4F4C",
"Q+	c #1B1E1F",
"R+	c #C55A02",
"S+	c #CE5D01",
"T+	c #AE5206",
"U+	c #202425",
"V+	c #7E817C",
"W+	c #1C2021",
"X+	c #191D1E",
"Y+	c #1E2223",
"                                            ",
"    . + + + + + + + + + @ # $ % & + + .     ",
"  & * = - ; > , ' ) ! ! ~ { ] ^ / ( = _ &   ",
"  : < [ } | 1 2 3 4 5 6 7 8 9 0 a b c < :   ",
"  d e f g h i 1 j k l m n o 9 p q r s e d   ",
"  t u v w g h i x y z A B C D 9 E F G u t   ",
"  H I J v K L M N 9 9 O P Q R 9 S T U I H   ",
"  V W X Y Z `  ...9 9 +.@.#.$.9 %.&.*.W V   ",
"  =.-.;.>.,.'.).!.~.{.].^./.(._.:.<.;.-.=.  ",
"  [.}.|.1.2.3.4.5.6.7.8.9.0.a.b.c.d.e.f.[.  ",
"  g.h.i.j.k.9 l.m.n.o.p.q.r.;.s.t.u.v.w.x.  ",
"  y.z.A.B.C.D.E.F.G.H.H.I.J.K.L.M.N.O.P.Q.  ",
"  R.S.T.U.V.W.X.Y.Z.Z.Z.Z.Y.`. +.+++@+#+$+  ",
"  %+&+*+=+-+;+>+,+'+'+'+'+,+>+;+)+!+~+{+%+  ",
"  ]+^+/+(+_+*+:+=+<+[+[+<+=+:+*+}+|+1+2+]+  ",
"  3+4+5+6+7+/+8+9+(+(+(+(+9+8+/+0+a+b+c+d+  ",
"  e+f+g+h+i+j+k+l+6+6+6+6+l+k+j+i+m+n+o+p+  ",
"  q+r+s+t++ & g+g+h+h+h+h+g+g+& + u+v+w+x+  ",
"  y+z+A+d B+C+s+t+t+t+t+t+t+s+C+B+A+D+E+F+  ",
"  G+H+I+J+J+K+K+L+M+M+M+M+L+K+K+J+J+N+O+P+Q+",
"    R+S+S+S+S+S+S+S+S+S+S+S+S+S+S+S+T+U+V+W+",
"                                      X+Y+  "};
