/* XPM */
static char *fldocuppal[]={
"32 32 525 2",
".# c None",
"c. c None",
"ae c None",
"cM c None",
"b9 c None",
"aF c None",
"aE c None",
"bM c None",
"bp c None",
"Qt c None",
"aD c #000000",
"gh c #000000",
".k c #020407",
"gk c #000000",
"cs c #16272c",
"a2 c #000000",
".a c #020202",
"c9 c #000000",
"fu c #000000",
"a3 c #528da4",
"gg c #000000",
".x c #010306",
"f8 c #040404",
"gi c #000000",
"gj c #000000",
".2 c #000203",
"bN c #4b8499",
"af c #070707",
".l c #050505",
"ey c #060606",
".y c #050505",
".N c #060606",
".M c #040810",
"eU c #060606",
"fv c #070707",
"fW c #070707",
"f3 c #090909",
".j c #020b17",
"dx c #0b171c",
"eb c #151515",
"c# c #383939",
"ad c #0a0e13",
".b c #2a2a2a",
".w c #0e213d",
"#f c #0a182c",
"ct c #0a1316",
".i c #121d2b",
".c c #303030",
".d c #2e2e2e",
".e c #2e2e2e",
".f c #2f2f2f",
".g c #2f2f2f",
".h c #2e3031",
"gf c #161616",
"#V c #0e223f",
"#u c #112746",
"d. c #2f444b",
".1 c #142d54",
"aC c #1c1e1f",
"#H c #162d4f",
".L c #163461",
"aG c #28434e",
"cu c #030101",
"a1 c #1d1d1d",
"bo c #1d1d1d",
"bL c #1d1d1d",
"b8 c #1e1e1e",
"cr c #1f1f1f",
"cL c #1f1f1f",
"c8 c #202020",
"dw c #212121",
"f9 c #373737",
"dR c #212121",
"ea c #232323",
"ex c #252525",
"eT c #272727",
"fb c #292929",
"ft c #2a2a2a",
"fL c #2c2c2c",
"fV c #2d2d2d",
"f2 c #2e2e2e",
".v c #1b417b",
"f7 c #333333",
"dS c #4d5559",
"g# c #363636",
"ga c #373737",
"gb c #383838",
"gc c #393939",
"gd c #363636",
"g. c #373737",
"ge c #393939",
"bq c #64aac5",
"a4 c #528da3",
"cN c #27414c",
".u c #194e9c",
"bO c #73b5cd",
".K c #2e65b9",
"#e c #3264b2",
".0 c #356cc2",
".m c #aaaaaa",
".O c #a0a0a0",
".z c #a1a1a1",
"ag c #858b8e",
"#v c #9f9f9f",
".3 c #a0a0a0",
"#I c #9f9f9f",
"#W c #a4a2a1",
"ac c #4e678b",
"dy c #98a2a6",
".t c #426aa5",
"ez c #918f8e",
"eV c #9b9998",
"fw c #969696",
"fc c #989797",
"f4 c #959595",
"fX c #979797",
"cv c #393e42",
"#t c #4e85de",
"ec c #939394",
"ca c #cac7c7",
"#U c #356cc0",
"#G c #5b94ec",
"bD c #000000",
"cP c #08131b",
"c3 c #0d171d",
"bw c #0f2037",
"bi c #0f2a31",
"a8 c #113038",
"cO c #182329",
"#R c #1852a5",
"#a c #1a4c94",
"#p c #1b53a6",
"#S c #1c509d",
"#8 c #1d4e99",
".X c #205096",
"#B c #2154a0",
"#Q c #215db4",
"#P c #235fb8",
"am c #24434f",
".I c #255cae",
"bv c #272e2c",
"al c #274753",
"aP c #27586a",
"#C c #2865bf",
"#D c #2867c4",
"#q c #2a68c4",
"b0 c #2e2a29",
"an c #2e4c57",
"#O c #2e5b9e",
".J c #3071d3",
"bE c #315d6c",
"#b c #316cc4",
"#E c #326fcb",
"ao c #33505b",
"bx c #335ca8",
"aO c #336071",
"c4 c #353e44",
"bZ c #35486e",
".Y c #3672cf",
"aN c #386475",
"aM c #396371",
"#7 c #3a629d",
"aI c #3c6572",
"#9 c #3e5f91",
"aH c #3e6877",
"dr c #40515b",
"#T c #406eb5",
"cQ c #415a72",
"dq c #425058",
"bj c #437181",
"a7 c #447d91",
"#r c #467eda",
".Z c #4787ed",
"a9 c #4b595c",
"a6 c #4b869b",
"#o c #4e6c96",
"#c c #4e89e9",
"a5 c #508aa0",
"#d c #538ff1",
"bC c #545c66",
"bY c #5675b0",
"a. c #596f90",
"cw c #597086",
"ds c #5f6a73",
"br c #5fa8c2",
"bs c #60a3bb",
"bF c #66b0cc",
"eB c #6796b0",
"#F c #679cf2",
"#s c #679dfb",
".H c #6880a4",
"a# c #6f7d93",
"ab c #71829b",
"## c #73849c",
"b2 c #74bad4",
"bB c #7585a7",
"eX c #76b7dc",
"ba c #78878b",
"aa c #798596",
"au c #7989a4",
"bh c #7a8386",
"aQ c #7b97a1",
"by c #7c889d",
"bU c #7c94c8",
"c2 c #7f8284",
".W c #808ea2",
"b3 c #80c9e4",
"fZ c #848484",
"eO c #848a8d",
"d8 c #858585",
"#A c #8590a1",
"cj c #8590a3",
"fA c #868585",
"fo c #868686",
"fH c #878787",
"dQ c #888888",
"bT c #898b8e",
"av c #8992a0",
"b1 c #8b989d",
"fN c #8c8c8c",
"b# c #8c9ba8",
"fF c #8e8e8e",
"fB c #8e999f",
"fY c #8f8f8f",
"fG c #909090",
"et c #919191",
"f6 c #929292",
"aJ c #92a1a4",
"cn c #92c0d2",
"a0 c #939393",
"fs c #949494",
"er c #959494",
"eS c #959595",
"ck c #959697",
"bK c #969696",
"aB c #979795",
"b7 c #979797",
"dL c #986320",
"d9 c #989898",
"f1 c #999999",
"f. c #999c9f",
"f0 c #9a9a9a",
"aU c #9aa2a4",
"fU c #9b9b9b",
"fE c #9c9c9c",
"dp c #9c9fa0",
"de c #9d7138",
"fn c #9d9d9d",
"fK c #9e9e9e",
"es c #9e9e9f",
"#N c #9ea1a4",
"aV c #9ea5a5",
"f5 c #9f9f9f",
"eN c #9fa5a9",
"be c #9fb1b7",
"fJ c #a0a0a0",
"d5 c #a16e33",
"fT c #a1a1a1",
"cH c #a2a09e",
"fr c #a2a2a2",
"ap c #a3adb0",
"bd c #a3b9c1",
"fq c #a4a4a4",
"fz c #a5a5a4",
"fQ c #a5a8a9",
"fP c #a5adb1",
"bk c #a5b5bb",
"fa c #a6a6a6",
"fS c #a7a7a7",
"eA c #a7b3b9",
"cT c #a87a3c",
"dZ c #a87d42",
"aw c #a8a7a6",
"#6 c #a8a8a8",
"c5 c #a8aaaa",
"dn c #a99474",
"eR c #a9a9a9",
"#0 c #a9b1b4",
"ed c #aaa8a7",
"fR c #aaaaaa",
"fm c #aaadb1",
"fp c #ababab",
"dG c #ac8c60",
"fy c #acaba9",
"f# c #acacac",
"eQ c #adadad",
"dt c #adadae",
"eW c #adbcc4",
"ew c #aeaeae",
"bV c #aebad2",
"bG c #aec5cd",
"fM c #afafaf",
"ax c #b0aeaa",
"#M c #b0afae",
"#5 c #b0b0af",
"eu c #b0b0b0",
"fe c #b0babf",
"ee c #b1afae",
"fI c #b1b1b1",
"at c #b1b1b2",
"e# c #b2b2b2",
"cI c #b2b4b4",
"eC c #b2bbc1",
"bc c #b2c2c8",
"ev c #b3b3b3",
"#n c #b4b2af",
"fO c #b4b3b3",
"as c #b4b4b4",
"ay c #b5b2ae",
"dH c #b69363",
"fd c #b6b8b9",
"d# c #b6bdc0",
".s c #b6c1d0",
"aX c #b7b7b7",
"bX c #b7bac2",
"fC c #b7bbbe",
"e. c #b8b8b8",
"dC c #b97c2e",
"#m c #b9b9b8",
"#z c #b9b9b9",
"bA c #b9b9bf",
"bt c #b9d0da",
"aY c #bababa",
"eP c #bbbaba",
"dv c #bbbbbb",
"c0 c #bca27d",
"az c #bcbab7",
"cm c #bcc1c3",
"cZ c #bd7515",
"e4 c #bd8439",
"fx c #bdbcbc",
"ar c #bdbdbd",
"c7 c #bebebe",
"bu c #bebfbf",
"dW c #bf8744",
"cA c #bf9c6e",
"aW c #bfbbb7",
"du c #bfbfbf",
"#1 c #bfc5c7",
".G c #c0c1c3",
"e3 c #c1822f",
"cB c #c19965",
"aZ c #c1c1c1",
"fh c #c1c5c9",
"dm c #c26e00",
"e2 c #c28e4a",
"#. c #c2c0bc",
"cK c #c2c2c2",
"aA c #c3c1bd",
"e9 c #c3c4c5",
"b. c #c3c8cd",
"aL c #c3cecf",
"co c #c3cfd4",
"eK c #c48038",
"c6 c #c4c4c4",
"e5 c #c59963",
"cC c #c5a476",
"bn c #c5c5c5",
"ci c #c5cbd4",
"eL c #c6a57b",
"ep c #c6b093",
"eo c #c78336",
".9 c #c7c7c6",
"#l c #c7c7c7",
"d0 c #c7d4e6",
"bm c #c8c8c8",
"e8 c #c8c9c9",
"dM c #c8c9ca",
"da c #c8cbcc",
"ak c #c8d4d6",
"aT c #c9c7c7",
"aS c #c9c9c8",
"#L c #c9c9ca",
"bb c #c9d3d6",
"#y c #cacaca",
"cU c #cc8e32",
"cz c #ccbaa1",
"cq c #cccccc",
"eq c #cccfd3",
"eY c #ccd5d9",
"bl c #cdc9c8",
"bJ c #cdcdcd",
"cG c #cecccb",
"b6 c #cecece",
"fD c #cececf",
"ah c #ced3d4",
"cJ c #cfcfcf",
"cD c #d1c0a7",
".V c #d1ceca",
"bI c #d1d1d1",
"fl c #d1d5d8",
"fg c #d2d2d2",
"eE c #d3af85",
"ff c #d3d1d0",
"d6 c #d3d3d4",
"db c #d3d4d5",
"dF c #d49442",
"bP c #d4e9f0",
"e1 c #d5c0a3",
"cp c #d5d3d2",
"b5 c #d5d3d3",
"#2 c #d5d9da",
"aq c #d6d4d3",
"bg c #d6d5d4",
"dO c #d6d6d7",
"dP c #d6d7d7",
"fi c #d6d7d9",
"dB c #d7cfc5",
"bf c #d7d5d1",
"bH c #d7d5d4",
".8 c #d7d7d8",
"b4 c #d7dada",
"cS c #d8d5d0",
"fj c #d8d6d3",
"ej c #d9840d",
"eg c #d9c6b0",
".U c #d9d8d7",
"cY c #da8a1f",
"e6 c #dbcbb5",
"#k c #dbdbdb",
"ek c #dca14e",
"#4 c #dcdcdc",
"aR c #dddbda",
"#x c #dddddd",
"dN c #ddddde",
"eZ c #dedddd",
"#K c #dededd",
"dT c #dedede",
"d7 c #dededf",
"fk c #dfdedb",
"e7 c #dfe2e4",
"d1 c #dfe5ee",
"eF c #e28e2c",
"#3 c #e2e3e3",
"cx c #e2e5e7",
"df c #e3c17a",
".T c #e3e4e4",
"eJ c #e4b165",
"dI c #e59a35",
".P c #e5e5e5",
"eM c #e5e6e8",
"eh c #e6983b",
".F c #e6e3e1",
"bS c #e6e5e4",
".4 c #e6e6e6",
"dV c #e7e6e5",
"dd c #e7e7e7",
"e0 c #e7eaed",
"cV c #e8a741",
".A c #e8e8e8",
"#Z c #e8eaeb",
"do c #e8eaee",
"cR c #e8ebee",
".p c #e9e9e9",
"cE c #eae8e3",
"#X c #eae9e9",
".o c #eaeaea",
"d4 c #ebb15d",
"cl c #ebe8e7",
".q c #ebebeb",
"dK c #eca13a",
".5 c #ececec",
"cX c #ed9f36",
"d2 c #edb253",
".n c #ededed",
"ef c #edf0f4",
"dj c #ee9827",
".r c #eeedec",
".B c #eeeeee",
"c1 c #eef1f4",
".6 c #efefef",
"di c #f0a139",
"cy c #f0efee",
"aK c #f0efef",
".C c #f0f0f0",
"dY c #f1a33e",
"cW c #f1aa43",
".Q c #f1f1f1",
"ch c #f1f3f4",
".D c #f2f2f2",
"dU c #f2f2f3",
".E c #f3f3f3",
"eD c #f3f5f7",
"dz c #f4f2f1",
".R c #f4f4f4",
"cb c #f5f4f3",
".S c #f5f5f5",
"el c #f6b451",
"ai c #f7f5f4",
"#g c #f7f7f7",
"dA c #f7f8fa",
".7 c #f8f8f8",
"eG c #f99c2f",
"#Y c #f9f8f8",
"ei c #faa132",
"eI c #faae41",
"cf c #faf9f8",
"#j c #fafafa",
"dc c #fafafb",
"bW c #fbfaf7",
"cc c #fbfafa",
"#h c #fbfbfb",
"eH c #fc9f2a",
"bQ c #fcf7f6",
"#i c #fcfcfc",
"cF c #fcfeff",
"bR c #fdfcfc",
"cd c #fdfdfd",
"aj c #fefcfc",
"ce c #fefefd",
"#w c #fefefe",
"cg c #feffff",
"dl c #ffb54a",
"dk c #ffbb55",
"dX c #ffbe5d",
"dJ c #ffd472",
"em c #ffd875",
"dh c #ffdd8a",
"d3 c #ffe077",
"dE c #ffe397",
"dD c #ffe699",
"en c #ffebbb",
"dg c #fffdb4",
"bz c #fffffe",
"#J c #ffffff",
"QtQtQtQtQtQtQtQtQtQtQtQtQtQtQtQtQtQtQtQtQtQtQtQtQtQtQtQtQtQtQtQt",
"QtQt.#.#.a.b.c.d.e.e.f.g.g.h.i.j.k.#.#.#.#.#.#.#.#.#.#.#.#.#QtQt",
"QtQt.#.#.l.m.n.o.o.p.o.o.q.r.s.t.u.v.w.x.#.#.#.#.#.#.#.#.#.#QtQt",
"QtQt.#.#.y.z.A.q.B.C.D.E.E.n.F.G.H.I.J.K.L.M.#.#.#.#.#.#.#.#QtQt",
"QtQt.#.#.N.O.P.q.B.Q.R.S.E.n.T.U.V.W.X.Y.Z.0.1.2.#.#.#.#.#.#QtQt",
"QtQt.#.#.N.3.4.5.6.D.S.7.7.S.o.8.9#.###a#b#c#d#e#f.#.#.#.#.#QtQt",
"QtQt.#.#.N.3.4.n.C.E#g#h#i#j.6#k#l#m#n#o#p#q#r#s#t#u.#.#.#.#QtQt",
"QtQt.#.#.y#v.4.n.Q.R.7#i#w#i.Q#x#y#z#n#A#B#C#D#E#F#G#H.#.#.#QtQt",
"QtQt.#.#.N#I.4.B.D.S#h#J#J#J.S#K#L#z#M#N#O#P#Q#R#S#T#U#V.#.#QtQt",
"QtQt.#.#.y#W#X.B.D#Y#Z#0#1#2#3#4#y#z#5#6#7#8#9a.a#aaabacad.#QtQt",
"QtQtae.#afagahai.RajakalamanaoapaqarasatauavawaxayazaAaBaCaDQtQt",
"QtQtaEaFaGaHaIaJaK#JaLaMaNaOaPaQaRaSaTaUaVaWaXaXaYaraZa0a1a2QtQt",
"QtQta3a4a5a6a7a8a9b.b#babbbcbdbebfbgbhbibjbkblbmbm#lbna0boa2QtQt",
"QtQtbpbqbrbsbtbubvbwbxbybz#J#JbAbBbCbDbDbEbFbGbHbIbJbmbKbLa2QtQt",
"QtQtbMbNbObPbQbRbSbTbUbVbW#J#JbXbYbZbDb0b1b2b3b4b5b6bmb7b8a2QtQt",
"QtQtb9c.c#cacbcccdcecf#J#Jcg#Jchcicjck.oclcmcncocpcqbnb7cra2QtQt",
"QtQtcsctcucvcwcx#J#JcyczcAcBcCcDcEcF#i.5.qcGcHcIcJbmcKb7cLa2QtQt",
"QtQtcMcNcOcPcQcR#JcScTcUcVcWcXcYcZc0c1.Bc2c3c4c5#yc6c7b7c8c9QtQt",
"QtQt.#d.d#dadbdcdddedfdgdhdidjdkdldmdndodpdqdrdsdtdudvb7dwc9QtQt",
"QtQt.#dxdydz.DdAdBdCdDdEdFdGdHdIdJdKdLdMdNdOdPcIdQaXaXb7dRc9QtQt",
"QtQt.#.#dSdT.5dUdVdWdXdYdZd0d1d2d3d4d5d6d7bIcKd8d9e.e#bKeac9QtQt",
"QtQt.#.#ebecedeeefegeheiejekelemeneoepeqeresd9eteuevewbKexc9QtQt",
"QtQt.#.#eyezeAeBeCeDeEeFeGeHeIeJeKeLeMeNeOePaYe.eveQeReSeTc9QtQt",
"QtQt.#.#eUeVeWeXeYeZe0e1e2e3e4e5e6e7e8e9f.f##zevew#6faeSfbc9QtQt",
"QtQt.#.#eUfcfdfeffbIfgfhfifjfkflfmfne.d9fofpe#eQeRfqfrfsftfuQtQt",
"QtQt.#.#fvfwfxfyb7asfzfAfBfCfDfEfF#6fGfHfpfIf##6fqfJfKa0fLfuQtQt",
"QtQt.#.#fvfwaYc7fMb7fNfOfPfQfOb7fRarewfMfIfpfSfqfTfnfUa0fVfuQtQt",
"QtQt.#.#fWfXe.e.aYaXasdve#fYfZfsewase#fMfpfSfqfTfKf0f1a0f2fuQtQt",
"QtQt.#.#f3f4fnd9f0fUfnfKf5d9f0fJfJf5fKfEf0b7bKfsf6fYfYf6f7fuQtQt",
"QtQt.#.#f8f9g.g#g#g#g#gagbgcgcgbgbgbgbgbgagagagagagagdgegfggQtQt",
"QtQt.#.#aDghgigjgjgjgjgjgjgjgjgjgjgjgjgjgjgjgjgjgjgjgjgjgigkQtQt",
"QtQtQtQtQtQtQtQtQtQtQtQtQtQtQtQtQtQtQtQtQtQtQtQtQtQtQtQtQtQtQtQt"};
